%TF.GenerationSoftware,KiCad,Pcbnew,(5.1.10)-1*%
%TF.CreationDate,2021-08-16T11:24:17+03:00*%
%TF.ProjectId,LPF-AD823AN-valmis,4c50462d-4144-4383-9233-414e2d76616c,rev?*%
%TF.SameCoordinates,Original*%
%TF.FileFunction,Soldermask,Top*%
%TF.FilePolarity,Negative*%
%FSLAX46Y46*%
G04 Gerber Fmt 4.6, Leading zero omitted, Abs format (unit mm)*
G04 Created by KiCad (PCBNEW (5.1.10)-1) date 2021-08-16 11:24:17*
%MOMM*%
%LPD*%
G01*
G04 APERTURE LIST*
%ADD10R,1.000000X1.000000*%
%ADD11C,3.000000*%
%ADD12R,2.400000X3.400000*%
%ADD13R,1.450000X0.450000*%
%ADD14C,1.300000*%
%ADD15R,0.850000X0.850000*%
%ADD16C,1.800000*%
G04 APERTURE END LIST*
D10*
%TO.C,REF\u002A\u002A*%
X118872000Y-139954000D03*
%TD*%
D11*
%TO.C,REF\u002A\u002A*%
X65532000Y-55626000D03*
%TD*%
%TO.C,REF\u002A\u002A*%
X112014000Y-137160000D03*
%TD*%
%TO.C,REF\u002A\u002A*%
X65532000Y-137160000D03*
%TD*%
%TO.C,REF\u002A\u002A*%
X112014000Y-55626000D03*
%TD*%
D12*
%TO.C,R48*%
X128638000Y-139065000D03*
X123838000Y-139065000D03*
%TD*%
%TO.C,R46*%
X126466000Y-58674000D03*
X121666000Y-58674000D03*
%TD*%
%TO.C,R44*%
X85445000Y-139573000D03*
X80645000Y-139573000D03*
%TD*%
%TO.C,R42*%
X130937000Y-128016000D03*
X126137000Y-128016000D03*
%TD*%
%TO.C,R41*%
X129019000Y-48006000D03*
X124219000Y-48006000D03*
%TD*%
%TO.C,R40*%
X85712000Y-128397000D03*
X80912000Y-128397000D03*
%TD*%
%TO.C,R39*%
X121145000Y-128016000D03*
X116345000Y-128016000D03*
%TD*%
%TO.C,R38*%
X119253000Y-48006000D03*
X114453000Y-48006000D03*
%TD*%
%TO.C,R37*%
X75806000Y-128397000D03*
X71006000Y-128397000D03*
%TD*%
%TO.C,R30*%
X83553000Y-58420000D03*
X78753000Y-58420000D03*
%TD*%
%TO.C,R28*%
X35026000Y-58547000D03*
X30226000Y-58547000D03*
%TD*%
%TO.C,R26*%
X37338000Y-139954000D03*
X32538000Y-139954000D03*
%TD*%
%TO.C,R24*%
X83540000Y-47371000D03*
X78740000Y-47371000D03*
%TD*%
%TO.C,R23*%
X38582000Y-128905000D03*
X33782000Y-128905000D03*
%TD*%
%TO.C,R22*%
X27686000Y-46990000D03*
X22886000Y-46990000D03*
%TD*%
%TO.C,R21*%
X73774000Y-47371000D03*
X68974000Y-47371000D03*
%TD*%
%TO.C,R20*%
X27927000Y-128905000D03*
X23127000Y-128905000D03*
%TD*%
%TO.C,R18*%
X148349000Y-128143000D03*
X153149000Y-128143000D03*
%TD*%
%TO.C,R17*%
X148463000Y-48260000D03*
X153263000Y-48260000D03*
%TD*%
%TO.C,R16*%
X103441500Y-128397000D03*
X108241500Y-128397000D03*
%TD*%
%TO.C,R15*%
X123838000Y-133223000D03*
X128638000Y-133223000D03*
%TD*%
%TO.C,R14*%
X121806000Y-53340000D03*
X126606000Y-53340000D03*
%TD*%
%TO.C,R13*%
X80645000Y-133858000D03*
X85445000Y-133858000D03*
%TD*%
%TO.C,R9*%
X102235000Y-46990000D03*
X107035000Y-46990000D03*
%TD*%
%TO.C,R8*%
X56020000Y-128905000D03*
X60820000Y-128905000D03*
%TD*%
%TO.C,R7*%
X56261000Y-46990000D03*
X61061000Y-46990000D03*
%TD*%
%TO.C,R6*%
X78753000Y-52832000D03*
X83553000Y-52832000D03*
%TD*%
%TO.C,R5*%
X32538000Y-134366000D03*
X37338000Y-134366000D03*
%TD*%
%TO.C,R4*%
X30239000Y-53086000D03*
X35039000Y-53086000D03*
%TD*%
%TO.C,R1*%
X33909000Y-46990000D03*
X38709000Y-46990000D03*
%TD*%
D13*
%TO.C,IC6*%
X139700000Y-126970000D03*
X139700000Y-127620000D03*
X139700000Y-128270000D03*
X139700000Y-128920000D03*
X135250000Y-128920000D03*
X135250000Y-128270000D03*
X135250000Y-127620000D03*
X135250000Y-126970000D03*
%TD*%
%TO.C,IC5*%
X140147000Y-47031000D03*
X140147000Y-47681000D03*
X140147000Y-48331000D03*
X140147000Y-48981000D03*
X135697000Y-48981000D03*
X135697000Y-48331000D03*
X135697000Y-47681000D03*
X135697000Y-47031000D03*
%TD*%
%TO.C,IC4*%
X95062000Y-127549000D03*
X95062000Y-128199000D03*
X95062000Y-128849000D03*
X95062000Y-129499000D03*
X90612000Y-129499000D03*
X90612000Y-128849000D03*
X90612000Y-128199000D03*
X90612000Y-127549000D03*
%TD*%
%TO.C,IC3*%
X93411000Y-46142000D03*
X93411000Y-46792000D03*
X93411000Y-47442000D03*
X93411000Y-48092000D03*
X88961000Y-48092000D03*
X88961000Y-47442000D03*
X88961000Y-46792000D03*
X88961000Y-46142000D03*
%TD*%
%TO.C,IC2*%
X49596000Y-127803000D03*
X49596000Y-128453000D03*
X49596000Y-129103000D03*
X49596000Y-129753000D03*
X45146000Y-129753000D03*
X45146000Y-129103000D03*
X45146000Y-128453000D03*
X45146000Y-127803000D03*
%TD*%
%TO.C,IC1*%
X48072000Y-46015000D03*
X48072000Y-46665000D03*
X48072000Y-47315000D03*
X48072000Y-47965000D03*
X43622000Y-47965000D03*
X43622000Y-47315000D03*
X43622000Y-46665000D03*
X43622000Y-46015000D03*
%TD*%
D14*
%TO.C,C12*%
X144787000Y-137160000D03*
X137287000Y-137160000D03*
%TD*%
%TO.C,C11*%
X142374000Y-56388000D03*
X134874000Y-56388000D03*
%TD*%
%TO.C,C10*%
X100718000Y-136906000D03*
X93218000Y-136906000D03*
%TD*%
%TO.C,C3*%
X98178000Y-55499000D03*
X90678000Y-55499000D03*
%TD*%
%TO.C,C2*%
X53601000Y-137287000D03*
X46101000Y-137287000D03*
%TD*%
%TO.C,C1*%
X51315000Y-56007000D03*
X43815000Y-56007000D03*
%TD*%
D15*
%TO.C,J12*%
X144843500Y-128270000D03*
%TD*%
%TO.C,J11*%
X144843500Y-48323500D03*
%TD*%
%TO.C,J10*%
X99949000Y-128841500D03*
%TD*%
%TO.C,J9*%
X118872000Y-133096000D03*
%TD*%
%TO.C,J8*%
X116332000Y-53086000D03*
%TD*%
%TO.C,J7*%
X74930000Y-134366000D03*
%TD*%
%TO.C,J6*%
X97282000Y-48006000D03*
%TD*%
%TO.C,J5*%
X52895500Y-129095500D03*
%TD*%
%TO.C,J4*%
X51054000Y-48260000D03*
%TD*%
%TO.C,J3*%
X72644000Y-53086000D03*
%TD*%
%TO.C,J2*%
X23749000Y-133731000D03*
%TD*%
%TO.C,J1*%
X22860000Y-52832000D03*
%TD*%
D16*
%TO.C,C4*%
X22952000Y-28575000D03*
X60452000Y-28575000D03*
%TD*%
%TO.C,C5*%
X23241000Y-110109000D03*
X60741000Y-110109000D03*
%TD*%
%TO.C,C6*%
X106807000Y-28321000D03*
X69307000Y-28321000D03*
%TD*%
%TO.C,C7*%
X60706000Y-77216000D03*
X23206000Y-77216000D03*
%TD*%
%TO.C,C8*%
X60833000Y-158115000D03*
X23333000Y-158115000D03*
%TD*%
%TO.C,C9*%
X69434000Y-77343000D03*
X106934000Y-77343000D03*
%TD*%
%TO.C,C13*%
X69815000Y-110109000D03*
X107315000Y-110109000D03*
%TD*%
%TO.C,C14*%
X115916000Y-28448000D03*
X153416000Y-28448000D03*
%TD*%
%TO.C,C15*%
X153324000Y-110109000D03*
X115824000Y-110109000D03*
%TD*%
%TO.C,C16*%
X107442000Y-158115000D03*
X69942000Y-158115000D03*
%TD*%
%TO.C,C17*%
X115789000Y-77089000D03*
X153289000Y-77089000D03*
%TD*%
%TO.C,C18*%
X153162000Y-158242000D03*
X115662000Y-158242000D03*
%TD*%
M02*
