M48
; DRILL file {KiCad (5.1.10)-1} date 08/16/21 11:26:23
; FORMAT={-:-/ absolute / inch / decimal}
; #@! TF.CreationDate,2021-08-16T11:26:23+03:00
; #@! TF.GenerationSoftware,Kicad,Pcbnew,(5.1.10)-1
; #@! TF.FileFunction,Plated,1,2,PTH
FMAT,2
INCH
T1C0.0157
T2C0.0197
T3C0.0256
T4C0.0315
T5C0.0472
%
G90
G05
T1
X2.0181Y-1.8117
X2.0714Y-5.01
X3.8243Y-1.808
X3.8504Y-5.0035
X5.6093Y-4.9827
X5.619Y-1.8275
T2
X0.9Y-2.08
X0.935Y-5.265
X2.01Y-1.9
X2.0825Y-5.0825
X2.86Y-2.09
X2.95Y-5.29
X3.83Y-1.89
X3.935Y-5.0725
X4.58Y-2.09
X4.68Y-5.24
X5.7025Y-1.9025
X5.7025Y-5.05
T3
X4.68Y-5.51
T4
X1.725Y-2.205
X1.815Y-5.405
X2.0203Y-2.205
X2.1103Y-5.405
X3.57Y-2.185
X3.67Y-5.39
X3.8653Y-2.185
X3.9653Y-5.39
X5.31Y-2.22
X5.405Y-5.4
X5.6053Y-2.22
X5.7003Y-5.4
T5
X0.9036Y-1.125
X0.9136Y-3.04
X0.915Y-4.335
X0.9186Y-6.225
X2.38Y-1.125
X2.39Y-3.04
X2.3914Y-4.335
X2.395Y-6.225
X2.7286Y-1.115
X2.7336Y-3.045
X2.7486Y-4.335
X2.7536Y-6.225
X4.205Y-1.115
X4.21Y-3.045
X4.225Y-4.335
X4.23Y-6.225
X4.5536Y-6.23
X4.5586Y-3.035
X4.56Y-4.335
X4.5636Y-1.12
X6.03Y-6.23
X6.035Y-3.035
X6.0364Y-4.335
X6.04Y-1.12
T0
M30
