%TF.GenerationSoftware,KiCad,Pcbnew,(5.1.10)-1*%
%TF.CreationDate,2021-08-16T11:24:17+03:00*%
%TF.ProjectId,LPF-AD823AN-valmis,4c50462d-4144-4383-9233-414e2d76616c,rev?*%
%TF.SameCoordinates,Original*%
%TF.FileFunction,Legend,Top*%
%TF.FilePolarity,Positive*%
%FSLAX46Y46*%
G04 Gerber Fmt 4.6, Leading zero omitted, Abs format (unit mm)*
G04 Created by KiCad (PCBNEW (5.1.10)-1) date 2021-08-16 11:24:17*
%MOMM*%
%LPD*%
G01*
G04 APERTURE LIST*
%ADD10C,0.120000*%
%ADD11C,0.200000*%
%ADD12C,0.150000*%
%ADD13C,0.254000*%
G04 APERTURE END LIST*
D10*
%TO.C,REF\u002A\u002A*%
X117762000Y-139194000D02*
X118872000Y-139194000D01*
X117762000Y-139954000D02*
X117762000Y-139194000D01*
X119435471Y-140714000D02*
X119982000Y-140714000D01*
X117762000Y-140714000D02*
X118308529Y-140714000D01*
X119982000Y-140714000D02*
X119982000Y-140649000D01*
X117762000Y-140714000D02*
X117762000Y-140649000D01*
X117762000Y-140714000D02*
X119982000Y-140714000D01*
D11*
%TO.C,R48*%
X126238000Y-137565000D02*
X126238000Y-140565000D01*
%TO.C,R46*%
X124066000Y-57174000D02*
X124066000Y-60174000D01*
%TO.C,R44*%
X83045000Y-138073000D02*
X83045000Y-141073000D01*
%TO.C,R42*%
X128537000Y-126516000D02*
X128537000Y-129516000D01*
%TO.C,R41*%
X126619000Y-46506000D02*
X126619000Y-49506000D01*
%TO.C,R40*%
X83312000Y-126897000D02*
X83312000Y-129897000D01*
%TO.C,R39*%
X118745000Y-126516000D02*
X118745000Y-129516000D01*
%TO.C,R38*%
X116853000Y-46506000D02*
X116853000Y-49506000D01*
%TO.C,R37*%
X73406000Y-126897000D02*
X73406000Y-129897000D01*
%TO.C,R30*%
X81153000Y-56920000D02*
X81153000Y-59920000D01*
%TO.C,R28*%
X32626000Y-57047000D02*
X32626000Y-60047000D01*
%TO.C,R26*%
X34938000Y-138454000D02*
X34938000Y-141454000D01*
%TO.C,R24*%
X81140000Y-45871000D02*
X81140000Y-48871000D01*
%TO.C,R23*%
X36182000Y-127405000D02*
X36182000Y-130405000D01*
%TO.C,R22*%
X25286000Y-45490000D02*
X25286000Y-48490000D01*
%TO.C,R21*%
X71374000Y-45871000D02*
X71374000Y-48871000D01*
%TO.C,R20*%
X25527000Y-127405000D02*
X25527000Y-130405000D01*
%TO.C,R18*%
X150749000Y-129643000D02*
X150749000Y-126643000D01*
%TO.C,R17*%
X150863000Y-49760000D02*
X150863000Y-46760000D01*
%TO.C,R16*%
X105841500Y-129897000D02*
X105841500Y-126897000D01*
%TO.C,R15*%
X126238000Y-134723000D02*
X126238000Y-131723000D01*
%TO.C,R14*%
X124206000Y-54840000D02*
X124206000Y-51840000D01*
%TO.C,R13*%
X83045000Y-135358000D02*
X83045000Y-132358000D01*
%TO.C,R9*%
X104635000Y-48490000D02*
X104635000Y-45490000D01*
%TO.C,R8*%
X58420000Y-130405000D02*
X58420000Y-127405000D01*
%TO.C,R7*%
X58661000Y-48490000D02*
X58661000Y-45490000D01*
%TO.C,R6*%
X81153000Y-54332000D02*
X81153000Y-51332000D01*
%TO.C,R5*%
X34938000Y-135866000D02*
X34938000Y-132866000D01*
%TO.C,R4*%
X32639000Y-54586000D02*
X32639000Y-51586000D01*
%TO.C,R1*%
X36309000Y-48490000D02*
X36309000Y-45490000D01*
%TO.C,IC6*%
X134525000Y-126395000D02*
X135975000Y-126395000D01*
X136325000Y-129445000D02*
X136325000Y-126445000D01*
X138625000Y-129445000D02*
X136325000Y-129445000D01*
X138625000Y-126445000D02*
X138625000Y-129445000D01*
X136325000Y-126445000D02*
X138625000Y-126445000D01*
%TO.C,IC5*%
X134972000Y-46456000D02*
X136422000Y-46456000D01*
X136772000Y-49506000D02*
X136772000Y-46506000D01*
X139072000Y-49506000D02*
X136772000Y-49506000D01*
X139072000Y-46506000D02*
X139072000Y-49506000D01*
X136772000Y-46506000D02*
X139072000Y-46506000D01*
%TO.C,IC4*%
X89887000Y-126974000D02*
X91337000Y-126974000D01*
X91687000Y-130024000D02*
X91687000Y-127024000D01*
X93987000Y-130024000D02*
X91687000Y-130024000D01*
X93987000Y-127024000D02*
X93987000Y-130024000D01*
X91687000Y-127024000D02*
X93987000Y-127024000D01*
%TO.C,IC3*%
X88236000Y-45567000D02*
X89686000Y-45567000D01*
X90036000Y-48617000D02*
X90036000Y-45617000D01*
X92336000Y-48617000D02*
X90036000Y-48617000D01*
X92336000Y-45617000D02*
X92336000Y-48617000D01*
X90036000Y-45617000D02*
X92336000Y-45617000D01*
%TO.C,IC2*%
X44421000Y-127228000D02*
X45871000Y-127228000D01*
X46221000Y-130278000D02*
X46221000Y-127278000D01*
X48521000Y-130278000D02*
X46221000Y-130278000D01*
X48521000Y-127278000D02*
X48521000Y-130278000D01*
X46221000Y-127278000D02*
X48521000Y-127278000D01*
%TO.C,IC1*%
X42897000Y-45440000D02*
X44347000Y-45440000D01*
X44697000Y-48490000D02*
X44697000Y-45490000D01*
X46997000Y-48490000D02*
X44697000Y-48490000D01*
X46997000Y-45490000D02*
X46997000Y-48490000D01*
X44697000Y-45490000D02*
X46997000Y-45490000D01*
%TO.C,C12*%
X134737000Y-132560000D02*
X147337000Y-132560000D01*
X147337000Y-132560000D02*
X147337000Y-141760000D01*
X147337000Y-141760000D02*
X134737000Y-141760000D01*
X134737000Y-141760000D02*
X134737000Y-132560000D01*
X134087000Y-137160000D02*
X134087000Y-137160000D01*
X134187000Y-137160000D02*
X134187000Y-137160000D01*
X134087000Y-137160000D02*
X134087000Y-137160000D01*
X134187000Y-137160000D02*
G75*
G02*
X134087000Y-137160000I-50000J0D01*
G01*
X134087000Y-137160000D02*
G75*
G02*
X134187000Y-137160000I50000J0D01*
G01*
X134187000Y-137160000D02*
G75*
G02*
X134087000Y-137160000I-50000J0D01*
G01*
%TO.C,C11*%
X132324000Y-51788000D02*
X144924000Y-51788000D01*
X144924000Y-51788000D02*
X144924000Y-60988000D01*
X144924000Y-60988000D02*
X132324000Y-60988000D01*
X132324000Y-60988000D02*
X132324000Y-51788000D01*
X131674000Y-56388000D02*
X131674000Y-56388000D01*
X131774000Y-56388000D02*
X131774000Y-56388000D01*
X131674000Y-56388000D02*
X131674000Y-56388000D01*
X131774000Y-56388000D02*
G75*
G02*
X131674000Y-56388000I-50000J0D01*
G01*
X131674000Y-56388000D02*
G75*
G02*
X131774000Y-56388000I50000J0D01*
G01*
X131774000Y-56388000D02*
G75*
G02*
X131674000Y-56388000I-50000J0D01*
G01*
%TO.C,C10*%
X90668000Y-132306000D02*
X103268000Y-132306000D01*
X103268000Y-132306000D02*
X103268000Y-141506000D01*
X103268000Y-141506000D02*
X90668000Y-141506000D01*
X90668000Y-141506000D02*
X90668000Y-132306000D01*
X90018000Y-136906000D02*
X90018000Y-136906000D01*
X90118000Y-136906000D02*
X90118000Y-136906000D01*
X90018000Y-136906000D02*
X90018000Y-136906000D01*
X90118000Y-136906000D02*
G75*
G02*
X90018000Y-136906000I-50000J0D01*
G01*
X90018000Y-136906000D02*
G75*
G02*
X90118000Y-136906000I50000J0D01*
G01*
X90118000Y-136906000D02*
G75*
G02*
X90018000Y-136906000I-50000J0D01*
G01*
%TO.C,C3*%
X88128000Y-50899000D02*
X100728000Y-50899000D01*
X100728000Y-50899000D02*
X100728000Y-60099000D01*
X100728000Y-60099000D02*
X88128000Y-60099000D01*
X88128000Y-60099000D02*
X88128000Y-50899000D01*
X87478000Y-55499000D02*
X87478000Y-55499000D01*
X87578000Y-55499000D02*
X87578000Y-55499000D01*
X87478000Y-55499000D02*
X87478000Y-55499000D01*
X87578000Y-55499000D02*
G75*
G02*
X87478000Y-55499000I-50000J0D01*
G01*
X87478000Y-55499000D02*
G75*
G02*
X87578000Y-55499000I50000J0D01*
G01*
X87578000Y-55499000D02*
G75*
G02*
X87478000Y-55499000I-50000J0D01*
G01*
%TO.C,C2*%
X43551000Y-132687000D02*
X56151000Y-132687000D01*
X56151000Y-132687000D02*
X56151000Y-141887000D01*
X56151000Y-141887000D02*
X43551000Y-141887000D01*
X43551000Y-141887000D02*
X43551000Y-132687000D01*
X42901000Y-137287000D02*
X42901000Y-137287000D01*
X43001000Y-137287000D02*
X43001000Y-137287000D01*
X42901000Y-137287000D02*
X42901000Y-137287000D01*
X43001000Y-137287000D02*
G75*
G02*
X42901000Y-137287000I-50000J0D01*
G01*
X42901000Y-137287000D02*
G75*
G02*
X43001000Y-137287000I50000J0D01*
G01*
X43001000Y-137287000D02*
G75*
G02*
X42901000Y-137287000I-50000J0D01*
G01*
%TO.C,C1*%
X41265000Y-51407000D02*
X53865000Y-51407000D01*
X53865000Y-51407000D02*
X53865000Y-60607000D01*
X53865000Y-60607000D02*
X41265000Y-60607000D01*
X41265000Y-60607000D02*
X41265000Y-51407000D01*
X40615000Y-56007000D02*
X40615000Y-56007000D01*
X40715000Y-56007000D02*
X40715000Y-56007000D01*
X40615000Y-56007000D02*
X40615000Y-56007000D01*
X40715000Y-56007000D02*
G75*
G02*
X40615000Y-56007000I-50000J0D01*
G01*
X40615000Y-56007000D02*
G75*
G02*
X40715000Y-56007000I50000J0D01*
G01*
X40715000Y-56007000D02*
G75*
G02*
X40615000Y-56007000I-50000J0D01*
G01*
D10*
%TO.C,J12*%
X144148500Y-127585000D02*
X144843500Y-127585000D01*
X144148500Y-128270000D02*
X144148500Y-127585000D01*
X145451776Y-128955000D02*
X145538500Y-128955000D01*
X144148500Y-128955000D02*
X144235224Y-128955000D01*
X145538500Y-128955000D02*
X145538500Y-128830000D01*
X144148500Y-128955000D02*
X144148500Y-128830000D01*
X144148500Y-128955000D02*
X145538500Y-128955000D01*
%TO.C,J11*%
X144148500Y-47638500D02*
X144843500Y-47638500D01*
X144148500Y-48323500D02*
X144148500Y-47638500D01*
X145451776Y-49008500D02*
X145538500Y-49008500D01*
X144148500Y-49008500D02*
X144235224Y-49008500D01*
X145538500Y-49008500D02*
X145538500Y-48883500D01*
X144148500Y-49008500D02*
X144148500Y-48883500D01*
X144148500Y-49008500D02*
X145538500Y-49008500D01*
%TO.C,J10*%
X99254000Y-128156500D02*
X99949000Y-128156500D01*
X99254000Y-128841500D02*
X99254000Y-128156500D01*
X100557276Y-129526500D02*
X100644000Y-129526500D01*
X99254000Y-129526500D02*
X99340724Y-129526500D01*
X100644000Y-129526500D02*
X100644000Y-129401500D01*
X99254000Y-129526500D02*
X99254000Y-129401500D01*
X99254000Y-129526500D02*
X100644000Y-129526500D01*
%TO.C,J9*%
X118177000Y-132411000D02*
X118872000Y-132411000D01*
X118177000Y-133096000D02*
X118177000Y-132411000D01*
X119480276Y-133781000D02*
X119567000Y-133781000D01*
X118177000Y-133781000D02*
X118263724Y-133781000D01*
X119567000Y-133781000D02*
X119567000Y-133656000D01*
X118177000Y-133781000D02*
X118177000Y-133656000D01*
X118177000Y-133781000D02*
X119567000Y-133781000D01*
%TO.C,J8*%
X115637000Y-52401000D02*
X116332000Y-52401000D01*
X115637000Y-53086000D02*
X115637000Y-52401000D01*
X116940276Y-53771000D02*
X117027000Y-53771000D01*
X115637000Y-53771000D02*
X115723724Y-53771000D01*
X117027000Y-53771000D02*
X117027000Y-53646000D01*
X115637000Y-53771000D02*
X115637000Y-53646000D01*
X115637000Y-53771000D02*
X117027000Y-53771000D01*
%TO.C,J7*%
X74235000Y-133681000D02*
X74930000Y-133681000D01*
X74235000Y-134366000D02*
X74235000Y-133681000D01*
X75538276Y-135051000D02*
X75625000Y-135051000D01*
X74235000Y-135051000D02*
X74321724Y-135051000D01*
X75625000Y-135051000D02*
X75625000Y-134926000D01*
X74235000Y-135051000D02*
X74235000Y-134926000D01*
X74235000Y-135051000D02*
X75625000Y-135051000D01*
%TO.C,J6*%
X96587000Y-47321000D02*
X97282000Y-47321000D01*
X96587000Y-48006000D02*
X96587000Y-47321000D01*
X97890276Y-48691000D02*
X97977000Y-48691000D01*
X96587000Y-48691000D02*
X96673724Y-48691000D01*
X97977000Y-48691000D02*
X97977000Y-48566000D01*
X96587000Y-48691000D02*
X96587000Y-48566000D01*
X96587000Y-48691000D02*
X97977000Y-48691000D01*
%TO.C,J5*%
X52200500Y-128410500D02*
X52895500Y-128410500D01*
X52200500Y-129095500D02*
X52200500Y-128410500D01*
X53503776Y-129780500D02*
X53590500Y-129780500D01*
X52200500Y-129780500D02*
X52287224Y-129780500D01*
X53590500Y-129780500D02*
X53590500Y-129655500D01*
X52200500Y-129780500D02*
X52200500Y-129655500D01*
X52200500Y-129780500D02*
X53590500Y-129780500D01*
%TO.C,J4*%
X50359000Y-47575000D02*
X51054000Y-47575000D01*
X50359000Y-48260000D02*
X50359000Y-47575000D01*
X51662276Y-48945000D02*
X51749000Y-48945000D01*
X50359000Y-48945000D02*
X50445724Y-48945000D01*
X51749000Y-48945000D02*
X51749000Y-48820000D01*
X50359000Y-48945000D02*
X50359000Y-48820000D01*
X50359000Y-48945000D02*
X51749000Y-48945000D01*
%TO.C,J3*%
X71949000Y-52401000D02*
X72644000Y-52401000D01*
X71949000Y-53086000D02*
X71949000Y-52401000D01*
X73252276Y-53771000D02*
X73339000Y-53771000D01*
X71949000Y-53771000D02*
X72035724Y-53771000D01*
X73339000Y-53771000D02*
X73339000Y-53646000D01*
X71949000Y-53771000D02*
X71949000Y-53646000D01*
X71949000Y-53771000D02*
X73339000Y-53771000D01*
%TO.C,J2*%
X23054000Y-133046000D02*
X23749000Y-133046000D01*
X23054000Y-133731000D02*
X23054000Y-133046000D01*
X24357276Y-134416000D02*
X24444000Y-134416000D01*
X23054000Y-134416000D02*
X23140724Y-134416000D01*
X24444000Y-134416000D02*
X24444000Y-134291000D01*
X23054000Y-134416000D02*
X23054000Y-134291000D01*
X23054000Y-134416000D02*
X24444000Y-134416000D01*
%TO.C,J1*%
X22165000Y-52147000D02*
X22860000Y-52147000D01*
X22165000Y-52832000D02*
X22165000Y-52147000D01*
X23468276Y-53517000D02*
X23555000Y-53517000D01*
X22165000Y-53517000D02*
X22251724Y-53517000D01*
X23555000Y-53517000D02*
X23555000Y-53392000D01*
X22165000Y-53517000D02*
X22165000Y-53392000D01*
X22165000Y-53517000D02*
X23555000Y-53517000D01*
D11*
%TO.C,C4*%
X63302000Y-28575000D02*
X63302000Y-28575000D01*
X63202000Y-28575000D02*
X63202000Y-28575000D01*
X63302000Y-28575000D02*
X63302000Y-28575000D01*
X62702000Y-42075000D02*
X62702000Y-15075000D01*
X20702000Y-42075000D02*
X62702000Y-42075000D01*
X20702000Y-15075000D02*
X20702000Y-42075000D01*
X62702000Y-15075000D02*
X20702000Y-15075000D01*
X63202000Y-28575000D02*
G75*
G02*
X63302000Y-28575000I50000J0D01*
G01*
X63302000Y-28575000D02*
G75*
G02*
X63202000Y-28575000I-50000J0D01*
G01*
X63202000Y-28575000D02*
G75*
G02*
X63302000Y-28575000I50000J0D01*
G01*
%TO.C,C5*%
X63591000Y-110109000D02*
X63591000Y-110109000D01*
X63491000Y-110109000D02*
X63491000Y-110109000D01*
X63591000Y-110109000D02*
X63591000Y-110109000D01*
X62991000Y-123609000D02*
X62991000Y-96609000D01*
X20991000Y-123609000D02*
X62991000Y-123609000D01*
X20991000Y-96609000D02*
X20991000Y-123609000D01*
X62991000Y-96609000D02*
X20991000Y-96609000D01*
X63491000Y-110109000D02*
G75*
G02*
X63591000Y-110109000I50000J0D01*
G01*
X63591000Y-110109000D02*
G75*
G02*
X63491000Y-110109000I-50000J0D01*
G01*
X63491000Y-110109000D02*
G75*
G02*
X63591000Y-110109000I50000J0D01*
G01*
%TO.C,C6*%
X109057000Y-14821000D02*
X67057000Y-14821000D01*
X67057000Y-14821000D02*
X67057000Y-41821000D01*
X67057000Y-41821000D02*
X109057000Y-41821000D01*
X109057000Y-41821000D02*
X109057000Y-14821000D01*
X109657000Y-28321000D02*
X109657000Y-28321000D01*
X109557000Y-28321000D02*
X109557000Y-28321000D01*
X109657000Y-28321000D02*
X109657000Y-28321000D01*
X109557000Y-28321000D02*
G75*
G02*
X109657000Y-28321000I50000J0D01*
G01*
X109657000Y-28321000D02*
G75*
G02*
X109557000Y-28321000I-50000J0D01*
G01*
X109557000Y-28321000D02*
G75*
G02*
X109657000Y-28321000I50000J0D01*
G01*
%TO.C,C7*%
X62956000Y-63716000D02*
X20956000Y-63716000D01*
X20956000Y-63716000D02*
X20956000Y-90716000D01*
X20956000Y-90716000D02*
X62956000Y-90716000D01*
X62956000Y-90716000D02*
X62956000Y-63716000D01*
X63556000Y-77216000D02*
X63556000Y-77216000D01*
X63456000Y-77216000D02*
X63456000Y-77216000D01*
X63556000Y-77216000D02*
X63556000Y-77216000D01*
X63456000Y-77216000D02*
G75*
G02*
X63556000Y-77216000I50000J0D01*
G01*
X63556000Y-77216000D02*
G75*
G02*
X63456000Y-77216000I-50000J0D01*
G01*
X63456000Y-77216000D02*
G75*
G02*
X63556000Y-77216000I50000J0D01*
G01*
%TO.C,C8*%
X63083000Y-144615000D02*
X21083000Y-144615000D01*
X21083000Y-144615000D02*
X21083000Y-171615000D01*
X21083000Y-171615000D02*
X63083000Y-171615000D01*
X63083000Y-171615000D02*
X63083000Y-144615000D01*
X63683000Y-158115000D02*
X63683000Y-158115000D01*
X63583000Y-158115000D02*
X63583000Y-158115000D01*
X63683000Y-158115000D02*
X63683000Y-158115000D01*
X63583000Y-158115000D02*
G75*
G02*
X63683000Y-158115000I50000J0D01*
G01*
X63683000Y-158115000D02*
G75*
G02*
X63583000Y-158115000I-50000J0D01*
G01*
X63583000Y-158115000D02*
G75*
G02*
X63683000Y-158115000I50000J0D01*
G01*
%TO.C,C9*%
X109784000Y-77343000D02*
X109784000Y-77343000D01*
X109684000Y-77343000D02*
X109684000Y-77343000D01*
X109784000Y-77343000D02*
X109784000Y-77343000D01*
X109184000Y-90843000D02*
X109184000Y-63843000D01*
X67184000Y-90843000D02*
X109184000Y-90843000D01*
X67184000Y-63843000D02*
X67184000Y-90843000D01*
X109184000Y-63843000D02*
X67184000Y-63843000D01*
X109684000Y-77343000D02*
G75*
G02*
X109784000Y-77343000I50000J0D01*
G01*
X109784000Y-77343000D02*
G75*
G02*
X109684000Y-77343000I-50000J0D01*
G01*
X109684000Y-77343000D02*
G75*
G02*
X109784000Y-77343000I50000J0D01*
G01*
%TO.C,C13*%
X110165000Y-110109000D02*
X110165000Y-110109000D01*
X110065000Y-110109000D02*
X110065000Y-110109000D01*
X110165000Y-110109000D02*
X110165000Y-110109000D01*
X109565000Y-123609000D02*
X109565000Y-96609000D01*
X67565000Y-123609000D02*
X109565000Y-123609000D01*
X67565000Y-96609000D02*
X67565000Y-123609000D01*
X109565000Y-96609000D02*
X67565000Y-96609000D01*
X110065000Y-110109000D02*
G75*
G02*
X110165000Y-110109000I50000J0D01*
G01*
X110165000Y-110109000D02*
G75*
G02*
X110065000Y-110109000I-50000J0D01*
G01*
X110065000Y-110109000D02*
G75*
G02*
X110165000Y-110109000I50000J0D01*
G01*
%TO.C,C14*%
X156266000Y-28448000D02*
X156266000Y-28448000D01*
X156166000Y-28448000D02*
X156166000Y-28448000D01*
X156266000Y-28448000D02*
X156266000Y-28448000D01*
X155666000Y-41948000D02*
X155666000Y-14948000D01*
X113666000Y-41948000D02*
X155666000Y-41948000D01*
X113666000Y-14948000D02*
X113666000Y-41948000D01*
X155666000Y-14948000D02*
X113666000Y-14948000D01*
X156166000Y-28448000D02*
G75*
G02*
X156266000Y-28448000I50000J0D01*
G01*
X156266000Y-28448000D02*
G75*
G02*
X156166000Y-28448000I-50000J0D01*
G01*
X156166000Y-28448000D02*
G75*
G02*
X156266000Y-28448000I50000J0D01*
G01*
%TO.C,C15*%
X155574000Y-96609000D02*
X113574000Y-96609000D01*
X113574000Y-96609000D02*
X113574000Y-123609000D01*
X113574000Y-123609000D02*
X155574000Y-123609000D01*
X155574000Y-123609000D02*
X155574000Y-96609000D01*
X156174000Y-110109000D02*
X156174000Y-110109000D01*
X156074000Y-110109000D02*
X156074000Y-110109000D01*
X156174000Y-110109000D02*
X156174000Y-110109000D01*
X156074000Y-110109000D02*
G75*
G02*
X156174000Y-110109000I50000J0D01*
G01*
X156174000Y-110109000D02*
G75*
G02*
X156074000Y-110109000I-50000J0D01*
G01*
X156074000Y-110109000D02*
G75*
G02*
X156174000Y-110109000I50000J0D01*
G01*
%TO.C,C16*%
X109692000Y-144615000D02*
X67692000Y-144615000D01*
X67692000Y-144615000D02*
X67692000Y-171615000D01*
X67692000Y-171615000D02*
X109692000Y-171615000D01*
X109692000Y-171615000D02*
X109692000Y-144615000D01*
X110292000Y-158115000D02*
X110292000Y-158115000D01*
X110192000Y-158115000D02*
X110192000Y-158115000D01*
X110292000Y-158115000D02*
X110292000Y-158115000D01*
X110192000Y-158115000D02*
G75*
G02*
X110292000Y-158115000I50000J0D01*
G01*
X110292000Y-158115000D02*
G75*
G02*
X110192000Y-158115000I-50000J0D01*
G01*
X110192000Y-158115000D02*
G75*
G02*
X110292000Y-158115000I50000J0D01*
G01*
%TO.C,C17*%
X156139000Y-77089000D02*
X156139000Y-77089000D01*
X156039000Y-77089000D02*
X156039000Y-77089000D01*
X156139000Y-77089000D02*
X156139000Y-77089000D01*
X155539000Y-90589000D02*
X155539000Y-63589000D01*
X113539000Y-90589000D02*
X155539000Y-90589000D01*
X113539000Y-63589000D02*
X113539000Y-90589000D01*
X155539000Y-63589000D02*
X113539000Y-63589000D01*
X156039000Y-77089000D02*
G75*
G02*
X156139000Y-77089000I50000J0D01*
G01*
X156139000Y-77089000D02*
G75*
G02*
X156039000Y-77089000I-50000J0D01*
G01*
X156039000Y-77089000D02*
G75*
G02*
X156139000Y-77089000I50000J0D01*
G01*
%TO.C,C18*%
X155412000Y-144742000D02*
X113412000Y-144742000D01*
X113412000Y-144742000D02*
X113412000Y-171742000D01*
X113412000Y-171742000D02*
X155412000Y-171742000D01*
X155412000Y-171742000D02*
X155412000Y-144742000D01*
X156012000Y-158242000D02*
X156012000Y-158242000D01*
X155912000Y-158242000D02*
X155912000Y-158242000D01*
X156012000Y-158242000D02*
X156012000Y-158242000D01*
X155912000Y-158242000D02*
G75*
G02*
X156012000Y-158242000I50000J0D01*
G01*
X156012000Y-158242000D02*
G75*
G02*
X155912000Y-158242000I-50000J0D01*
G01*
X155912000Y-158242000D02*
G75*
G02*
X156012000Y-158242000I50000J0D01*
G01*
%TO.C,REF\u002A\u002A*%
D12*
X117538666Y-138711380D02*
X117205333Y-138235190D01*
X116967238Y-138711380D02*
X116967238Y-137711380D01*
X117348190Y-137711380D01*
X117443428Y-137759000D01*
X117491047Y-137806619D01*
X117538666Y-137901857D01*
X117538666Y-138044714D01*
X117491047Y-138139952D01*
X117443428Y-138187571D01*
X117348190Y-138235190D01*
X116967238Y-138235190D01*
X117967238Y-138187571D02*
X118300571Y-138187571D01*
X118443428Y-138711380D02*
X117967238Y-138711380D01*
X117967238Y-137711380D01*
X118443428Y-137711380D01*
X119205333Y-138187571D02*
X118872000Y-138187571D01*
X118872000Y-138711380D02*
X118872000Y-137711380D01*
X119348190Y-137711380D01*
X119872000Y-137711380D02*
X119872000Y-137949476D01*
X119633904Y-137854238D02*
X119872000Y-137949476D01*
X120110095Y-137854238D01*
X119729142Y-138139952D02*
X119872000Y-137949476D01*
X120014857Y-138139952D01*
X120633904Y-137711380D02*
X120633904Y-137949476D01*
X120395809Y-137854238D02*
X120633904Y-137949476D01*
X120872000Y-137854238D01*
X120491047Y-138139952D02*
X120633904Y-137949476D01*
X120776761Y-138139952D01*
X64198666Y-52078380D02*
X63865333Y-51602190D01*
X63627238Y-52078380D02*
X63627238Y-51078380D01*
X64008190Y-51078380D01*
X64103428Y-51126000D01*
X64151047Y-51173619D01*
X64198666Y-51268857D01*
X64198666Y-51411714D01*
X64151047Y-51506952D01*
X64103428Y-51554571D01*
X64008190Y-51602190D01*
X63627238Y-51602190D01*
X64627238Y-51554571D02*
X64960571Y-51554571D01*
X65103428Y-52078380D02*
X64627238Y-52078380D01*
X64627238Y-51078380D01*
X65103428Y-51078380D01*
X65865333Y-51554571D02*
X65532000Y-51554571D01*
X65532000Y-52078380D02*
X65532000Y-51078380D01*
X66008190Y-51078380D01*
X66532000Y-51078380D02*
X66532000Y-51316476D01*
X66293904Y-51221238D02*
X66532000Y-51316476D01*
X66770095Y-51221238D01*
X66389142Y-51506952D02*
X66532000Y-51316476D01*
X66674857Y-51506952D01*
X67293904Y-51078380D02*
X67293904Y-51316476D01*
X67055809Y-51221238D02*
X67293904Y-51316476D01*
X67532000Y-51221238D01*
X67151047Y-51506952D02*
X67293904Y-51316476D01*
X67436761Y-51506952D01*
X110680666Y-133612380D02*
X110347333Y-133136190D01*
X110109238Y-133612380D02*
X110109238Y-132612380D01*
X110490190Y-132612380D01*
X110585428Y-132660000D01*
X110633047Y-132707619D01*
X110680666Y-132802857D01*
X110680666Y-132945714D01*
X110633047Y-133040952D01*
X110585428Y-133088571D01*
X110490190Y-133136190D01*
X110109238Y-133136190D01*
X111109238Y-133088571D02*
X111442571Y-133088571D01*
X111585428Y-133612380D02*
X111109238Y-133612380D01*
X111109238Y-132612380D01*
X111585428Y-132612380D01*
X112347333Y-133088571D02*
X112014000Y-133088571D01*
X112014000Y-133612380D02*
X112014000Y-132612380D01*
X112490190Y-132612380D01*
X113014000Y-132612380D02*
X113014000Y-132850476D01*
X112775904Y-132755238D02*
X113014000Y-132850476D01*
X113252095Y-132755238D01*
X112871142Y-133040952D02*
X113014000Y-132850476D01*
X113156857Y-133040952D01*
X113775904Y-132612380D02*
X113775904Y-132850476D01*
X113537809Y-132755238D02*
X113775904Y-132850476D01*
X114014000Y-132755238D01*
X113633047Y-133040952D02*
X113775904Y-132850476D01*
X113918761Y-133040952D01*
X64198666Y-133612380D02*
X63865333Y-133136190D01*
X63627238Y-133612380D02*
X63627238Y-132612380D01*
X64008190Y-132612380D01*
X64103428Y-132660000D01*
X64151047Y-132707619D01*
X64198666Y-132802857D01*
X64198666Y-132945714D01*
X64151047Y-133040952D01*
X64103428Y-133088571D01*
X64008190Y-133136190D01*
X63627238Y-133136190D01*
X64627238Y-133088571D02*
X64960571Y-133088571D01*
X65103428Y-133612380D02*
X64627238Y-133612380D01*
X64627238Y-132612380D01*
X65103428Y-132612380D01*
X65865333Y-133088571D02*
X65532000Y-133088571D01*
X65532000Y-133612380D02*
X65532000Y-132612380D01*
X66008190Y-132612380D01*
X66532000Y-132612380D02*
X66532000Y-132850476D01*
X66293904Y-132755238D02*
X66532000Y-132850476D01*
X66770095Y-132755238D01*
X66389142Y-133040952D02*
X66532000Y-132850476D01*
X66674857Y-133040952D01*
X67293904Y-132612380D02*
X67293904Y-132850476D01*
X67055809Y-132755238D02*
X67293904Y-132850476D01*
X67532000Y-132755238D01*
X67151047Y-133040952D02*
X67293904Y-132850476D01*
X67436761Y-133040952D01*
X110680666Y-52078380D02*
X110347333Y-51602190D01*
X110109238Y-52078380D02*
X110109238Y-51078380D01*
X110490190Y-51078380D01*
X110585428Y-51126000D01*
X110633047Y-51173619D01*
X110680666Y-51268857D01*
X110680666Y-51411714D01*
X110633047Y-51506952D01*
X110585428Y-51554571D01*
X110490190Y-51602190D01*
X110109238Y-51602190D01*
X111109238Y-51554571D02*
X111442571Y-51554571D01*
X111585428Y-52078380D02*
X111109238Y-52078380D01*
X111109238Y-51078380D01*
X111585428Y-51078380D01*
X112347333Y-51554571D02*
X112014000Y-51554571D01*
X112014000Y-52078380D02*
X112014000Y-51078380D01*
X112490190Y-51078380D01*
X113014000Y-51078380D02*
X113014000Y-51316476D01*
X112775904Y-51221238D02*
X113014000Y-51316476D01*
X113252095Y-51221238D01*
X112871142Y-51506952D02*
X113014000Y-51316476D01*
X113156857Y-51506952D01*
X113775904Y-51078380D02*
X113775904Y-51316476D01*
X113537809Y-51221238D02*
X113775904Y-51316476D01*
X114014000Y-51221238D01*
X113633047Y-51506952D02*
X113775904Y-51316476D01*
X113918761Y-51506952D01*
%TO.C,R48*%
D13*
X125421571Y-139639523D02*
X124998238Y-139034761D01*
X124695857Y-139639523D02*
X124695857Y-138369523D01*
X125179666Y-138369523D01*
X125300619Y-138430000D01*
X125361095Y-138490476D01*
X125421571Y-138611428D01*
X125421571Y-138792857D01*
X125361095Y-138913809D01*
X125300619Y-138974285D01*
X125179666Y-139034761D01*
X124695857Y-139034761D01*
X126510142Y-138792857D02*
X126510142Y-139639523D01*
X126207761Y-138309047D02*
X125905380Y-139216190D01*
X126691571Y-139216190D01*
X127356809Y-138913809D02*
X127235857Y-138853333D01*
X127175380Y-138792857D01*
X127114904Y-138671904D01*
X127114904Y-138611428D01*
X127175380Y-138490476D01*
X127235857Y-138430000D01*
X127356809Y-138369523D01*
X127598714Y-138369523D01*
X127719666Y-138430000D01*
X127780142Y-138490476D01*
X127840619Y-138611428D01*
X127840619Y-138671904D01*
X127780142Y-138792857D01*
X127719666Y-138853333D01*
X127598714Y-138913809D01*
X127356809Y-138913809D01*
X127235857Y-138974285D01*
X127175380Y-139034761D01*
X127114904Y-139155714D01*
X127114904Y-139397619D01*
X127175380Y-139518571D01*
X127235857Y-139579047D01*
X127356809Y-139639523D01*
X127598714Y-139639523D01*
X127719666Y-139579047D01*
X127780142Y-139518571D01*
X127840619Y-139397619D01*
X127840619Y-139155714D01*
X127780142Y-139034761D01*
X127719666Y-138974285D01*
X127598714Y-138913809D01*
%TO.C,R46*%
X123249571Y-59248523D02*
X122826238Y-58643761D01*
X122523857Y-59248523D02*
X122523857Y-57978523D01*
X123007666Y-57978523D01*
X123128619Y-58039000D01*
X123189095Y-58099476D01*
X123249571Y-58220428D01*
X123249571Y-58401857D01*
X123189095Y-58522809D01*
X123128619Y-58583285D01*
X123007666Y-58643761D01*
X122523857Y-58643761D01*
X124338142Y-58401857D02*
X124338142Y-59248523D01*
X124035761Y-57918047D02*
X123733380Y-58825190D01*
X124519571Y-58825190D01*
X125547666Y-57978523D02*
X125305761Y-57978523D01*
X125184809Y-58039000D01*
X125124333Y-58099476D01*
X125003380Y-58280904D01*
X124942904Y-58522809D01*
X124942904Y-59006619D01*
X125003380Y-59127571D01*
X125063857Y-59188047D01*
X125184809Y-59248523D01*
X125426714Y-59248523D01*
X125547666Y-59188047D01*
X125608142Y-59127571D01*
X125668619Y-59006619D01*
X125668619Y-58704238D01*
X125608142Y-58583285D01*
X125547666Y-58522809D01*
X125426714Y-58462333D01*
X125184809Y-58462333D01*
X125063857Y-58522809D01*
X125003380Y-58583285D01*
X124942904Y-58704238D01*
%TO.C,R44*%
X82228571Y-140147523D02*
X81805238Y-139542761D01*
X81502857Y-140147523D02*
X81502857Y-138877523D01*
X81986666Y-138877523D01*
X82107619Y-138938000D01*
X82168095Y-138998476D01*
X82228571Y-139119428D01*
X82228571Y-139300857D01*
X82168095Y-139421809D01*
X82107619Y-139482285D01*
X81986666Y-139542761D01*
X81502857Y-139542761D01*
X83317142Y-139300857D02*
X83317142Y-140147523D01*
X83014761Y-138817047D02*
X82712380Y-139724190D01*
X83498571Y-139724190D01*
X84526666Y-139300857D02*
X84526666Y-140147523D01*
X84224285Y-138817047D02*
X83921904Y-139724190D01*
X84708095Y-139724190D01*
%TO.C,R42*%
X127720571Y-128590523D02*
X127297238Y-127985761D01*
X126994857Y-128590523D02*
X126994857Y-127320523D01*
X127478666Y-127320523D01*
X127599619Y-127381000D01*
X127660095Y-127441476D01*
X127720571Y-127562428D01*
X127720571Y-127743857D01*
X127660095Y-127864809D01*
X127599619Y-127925285D01*
X127478666Y-127985761D01*
X126994857Y-127985761D01*
X128809142Y-127743857D02*
X128809142Y-128590523D01*
X128506761Y-127260047D02*
X128204380Y-128167190D01*
X128990571Y-128167190D01*
X129413904Y-127441476D02*
X129474380Y-127381000D01*
X129595333Y-127320523D01*
X129897714Y-127320523D01*
X130018666Y-127381000D01*
X130079142Y-127441476D01*
X130139619Y-127562428D01*
X130139619Y-127683380D01*
X130079142Y-127864809D01*
X129353428Y-128590523D01*
X130139619Y-128590523D01*
%TO.C,R41*%
X125802571Y-48580523D02*
X125379238Y-47975761D01*
X125076857Y-48580523D02*
X125076857Y-47310523D01*
X125560666Y-47310523D01*
X125681619Y-47371000D01*
X125742095Y-47431476D01*
X125802571Y-47552428D01*
X125802571Y-47733857D01*
X125742095Y-47854809D01*
X125681619Y-47915285D01*
X125560666Y-47975761D01*
X125076857Y-47975761D01*
X126891142Y-47733857D02*
X126891142Y-48580523D01*
X126588761Y-47250047D02*
X126286380Y-48157190D01*
X127072571Y-48157190D01*
X128221619Y-48580523D02*
X127495904Y-48580523D01*
X127858761Y-48580523D02*
X127858761Y-47310523D01*
X127737809Y-47491952D01*
X127616857Y-47612904D01*
X127495904Y-47673380D01*
%TO.C,R40*%
X82495571Y-128971523D02*
X82072238Y-128366761D01*
X81769857Y-128971523D02*
X81769857Y-127701523D01*
X82253666Y-127701523D01*
X82374619Y-127762000D01*
X82435095Y-127822476D01*
X82495571Y-127943428D01*
X82495571Y-128124857D01*
X82435095Y-128245809D01*
X82374619Y-128306285D01*
X82253666Y-128366761D01*
X81769857Y-128366761D01*
X83584142Y-128124857D02*
X83584142Y-128971523D01*
X83281761Y-127641047D02*
X82979380Y-128548190D01*
X83765571Y-128548190D01*
X84491285Y-127701523D02*
X84612238Y-127701523D01*
X84733190Y-127762000D01*
X84793666Y-127822476D01*
X84854142Y-127943428D01*
X84914619Y-128185333D01*
X84914619Y-128487714D01*
X84854142Y-128729619D01*
X84793666Y-128850571D01*
X84733190Y-128911047D01*
X84612238Y-128971523D01*
X84491285Y-128971523D01*
X84370333Y-128911047D01*
X84309857Y-128850571D01*
X84249380Y-128729619D01*
X84188904Y-128487714D01*
X84188904Y-128185333D01*
X84249380Y-127943428D01*
X84309857Y-127822476D01*
X84370333Y-127762000D01*
X84491285Y-127701523D01*
%TO.C,R39*%
X117928571Y-128590523D02*
X117505238Y-127985761D01*
X117202857Y-128590523D02*
X117202857Y-127320523D01*
X117686666Y-127320523D01*
X117807619Y-127381000D01*
X117868095Y-127441476D01*
X117928571Y-127562428D01*
X117928571Y-127743857D01*
X117868095Y-127864809D01*
X117807619Y-127925285D01*
X117686666Y-127985761D01*
X117202857Y-127985761D01*
X118351904Y-127320523D02*
X119138095Y-127320523D01*
X118714761Y-127804333D01*
X118896190Y-127804333D01*
X119017142Y-127864809D01*
X119077619Y-127925285D01*
X119138095Y-128046238D01*
X119138095Y-128348619D01*
X119077619Y-128469571D01*
X119017142Y-128530047D01*
X118896190Y-128590523D01*
X118533333Y-128590523D01*
X118412380Y-128530047D01*
X118351904Y-128469571D01*
X119742857Y-128590523D02*
X119984761Y-128590523D01*
X120105714Y-128530047D01*
X120166190Y-128469571D01*
X120287142Y-128288142D01*
X120347619Y-128046238D01*
X120347619Y-127562428D01*
X120287142Y-127441476D01*
X120226666Y-127381000D01*
X120105714Y-127320523D01*
X119863809Y-127320523D01*
X119742857Y-127381000D01*
X119682380Y-127441476D01*
X119621904Y-127562428D01*
X119621904Y-127864809D01*
X119682380Y-127985761D01*
X119742857Y-128046238D01*
X119863809Y-128106714D01*
X120105714Y-128106714D01*
X120226666Y-128046238D01*
X120287142Y-127985761D01*
X120347619Y-127864809D01*
%TO.C,R38*%
X116036571Y-48580523D02*
X115613238Y-47975761D01*
X115310857Y-48580523D02*
X115310857Y-47310523D01*
X115794666Y-47310523D01*
X115915619Y-47371000D01*
X115976095Y-47431476D01*
X116036571Y-47552428D01*
X116036571Y-47733857D01*
X115976095Y-47854809D01*
X115915619Y-47915285D01*
X115794666Y-47975761D01*
X115310857Y-47975761D01*
X116459904Y-47310523D02*
X117246095Y-47310523D01*
X116822761Y-47794333D01*
X117004190Y-47794333D01*
X117125142Y-47854809D01*
X117185619Y-47915285D01*
X117246095Y-48036238D01*
X117246095Y-48338619D01*
X117185619Y-48459571D01*
X117125142Y-48520047D01*
X117004190Y-48580523D01*
X116641333Y-48580523D01*
X116520380Y-48520047D01*
X116459904Y-48459571D01*
X117971809Y-47854809D02*
X117850857Y-47794333D01*
X117790380Y-47733857D01*
X117729904Y-47612904D01*
X117729904Y-47552428D01*
X117790380Y-47431476D01*
X117850857Y-47371000D01*
X117971809Y-47310523D01*
X118213714Y-47310523D01*
X118334666Y-47371000D01*
X118395142Y-47431476D01*
X118455619Y-47552428D01*
X118455619Y-47612904D01*
X118395142Y-47733857D01*
X118334666Y-47794333D01*
X118213714Y-47854809D01*
X117971809Y-47854809D01*
X117850857Y-47915285D01*
X117790380Y-47975761D01*
X117729904Y-48096714D01*
X117729904Y-48338619D01*
X117790380Y-48459571D01*
X117850857Y-48520047D01*
X117971809Y-48580523D01*
X118213714Y-48580523D01*
X118334666Y-48520047D01*
X118395142Y-48459571D01*
X118455619Y-48338619D01*
X118455619Y-48096714D01*
X118395142Y-47975761D01*
X118334666Y-47915285D01*
X118213714Y-47854809D01*
%TO.C,R37*%
X72462571Y-128336523D02*
X72039238Y-127731761D01*
X71736857Y-128336523D02*
X71736857Y-127066523D01*
X72220666Y-127066523D01*
X72341619Y-127127000D01*
X72402095Y-127187476D01*
X72462571Y-127308428D01*
X72462571Y-127489857D01*
X72402095Y-127610809D01*
X72341619Y-127671285D01*
X72220666Y-127731761D01*
X71736857Y-127731761D01*
X72885904Y-127066523D02*
X73672095Y-127066523D01*
X73248761Y-127550333D01*
X73430190Y-127550333D01*
X73551142Y-127610809D01*
X73611619Y-127671285D01*
X73672095Y-127792238D01*
X73672095Y-128094619D01*
X73611619Y-128215571D01*
X73551142Y-128276047D01*
X73430190Y-128336523D01*
X73067333Y-128336523D01*
X72946380Y-128276047D01*
X72885904Y-128215571D01*
X74095428Y-127066523D02*
X74942095Y-127066523D01*
X74397809Y-128336523D01*
%TO.C,R30*%
X80336571Y-58994523D02*
X79913238Y-58389761D01*
X79610857Y-58994523D02*
X79610857Y-57724523D01*
X80094666Y-57724523D01*
X80215619Y-57785000D01*
X80276095Y-57845476D01*
X80336571Y-57966428D01*
X80336571Y-58147857D01*
X80276095Y-58268809D01*
X80215619Y-58329285D01*
X80094666Y-58389761D01*
X79610857Y-58389761D01*
X80759904Y-57724523D02*
X81546095Y-57724523D01*
X81122761Y-58208333D01*
X81304190Y-58208333D01*
X81425142Y-58268809D01*
X81485619Y-58329285D01*
X81546095Y-58450238D01*
X81546095Y-58752619D01*
X81485619Y-58873571D01*
X81425142Y-58934047D01*
X81304190Y-58994523D01*
X80941333Y-58994523D01*
X80820380Y-58934047D01*
X80759904Y-58873571D01*
X82332285Y-57724523D02*
X82453238Y-57724523D01*
X82574190Y-57785000D01*
X82634666Y-57845476D01*
X82695142Y-57966428D01*
X82755619Y-58208333D01*
X82755619Y-58510714D01*
X82695142Y-58752619D01*
X82634666Y-58873571D01*
X82574190Y-58934047D01*
X82453238Y-58994523D01*
X82332285Y-58994523D01*
X82211333Y-58934047D01*
X82150857Y-58873571D01*
X82090380Y-58752619D01*
X82029904Y-58510714D01*
X82029904Y-58208333D01*
X82090380Y-57966428D01*
X82150857Y-57845476D01*
X82211333Y-57785000D01*
X82332285Y-57724523D01*
%TO.C,R28*%
X31809571Y-59121523D02*
X31386238Y-58516761D01*
X31083857Y-59121523D02*
X31083857Y-57851523D01*
X31567666Y-57851523D01*
X31688619Y-57912000D01*
X31749095Y-57972476D01*
X31809571Y-58093428D01*
X31809571Y-58274857D01*
X31749095Y-58395809D01*
X31688619Y-58456285D01*
X31567666Y-58516761D01*
X31083857Y-58516761D01*
X32293380Y-57972476D02*
X32353857Y-57912000D01*
X32474809Y-57851523D01*
X32777190Y-57851523D01*
X32898142Y-57912000D01*
X32958619Y-57972476D01*
X33019095Y-58093428D01*
X33019095Y-58214380D01*
X32958619Y-58395809D01*
X32232904Y-59121523D01*
X33019095Y-59121523D01*
X33744809Y-58395809D02*
X33623857Y-58335333D01*
X33563380Y-58274857D01*
X33502904Y-58153904D01*
X33502904Y-58093428D01*
X33563380Y-57972476D01*
X33623857Y-57912000D01*
X33744809Y-57851523D01*
X33986714Y-57851523D01*
X34107666Y-57912000D01*
X34168142Y-57972476D01*
X34228619Y-58093428D01*
X34228619Y-58153904D01*
X34168142Y-58274857D01*
X34107666Y-58335333D01*
X33986714Y-58395809D01*
X33744809Y-58395809D01*
X33623857Y-58456285D01*
X33563380Y-58516761D01*
X33502904Y-58637714D01*
X33502904Y-58879619D01*
X33563380Y-59000571D01*
X33623857Y-59061047D01*
X33744809Y-59121523D01*
X33986714Y-59121523D01*
X34107666Y-59061047D01*
X34168142Y-59000571D01*
X34228619Y-58879619D01*
X34228619Y-58637714D01*
X34168142Y-58516761D01*
X34107666Y-58456285D01*
X33986714Y-58395809D01*
%TO.C,R26*%
X34121571Y-140528523D02*
X33698238Y-139923761D01*
X33395857Y-140528523D02*
X33395857Y-139258523D01*
X33879666Y-139258523D01*
X34000619Y-139319000D01*
X34061095Y-139379476D01*
X34121571Y-139500428D01*
X34121571Y-139681857D01*
X34061095Y-139802809D01*
X34000619Y-139863285D01*
X33879666Y-139923761D01*
X33395857Y-139923761D01*
X34605380Y-139379476D02*
X34665857Y-139319000D01*
X34786809Y-139258523D01*
X35089190Y-139258523D01*
X35210142Y-139319000D01*
X35270619Y-139379476D01*
X35331095Y-139500428D01*
X35331095Y-139621380D01*
X35270619Y-139802809D01*
X34544904Y-140528523D01*
X35331095Y-140528523D01*
X36419666Y-139258523D02*
X36177761Y-139258523D01*
X36056809Y-139319000D01*
X35996333Y-139379476D01*
X35875380Y-139560904D01*
X35814904Y-139802809D01*
X35814904Y-140286619D01*
X35875380Y-140407571D01*
X35935857Y-140468047D01*
X36056809Y-140528523D01*
X36298714Y-140528523D01*
X36419666Y-140468047D01*
X36480142Y-140407571D01*
X36540619Y-140286619D01*
X36540619Y-139984238D01*
X36480142Y-139863285D01*
X36419666Y-139802809D01*
X36298714Y-139742333D01*
X36056809Y-139742333D01*
X35935857Y-139802809D01*
X35875380Y-139863285D01*
X35814904Y-139984238D01*
%TO.C,R24*%
X80323571Y-47945523D02*
X79900238Y-47340761D01*
X79597857Y-47945523D02*
X79597857Y-46675523D01*
X80081666Y-46675523D01*
X80202619Y-46736000D01*
X80263095Y-46796476D01*
X80323571Y-46917428D01*
X80323571Y-47098857D01*
X80263095Y-47219809D01*
X80202619Y-47280285D01*
X80081666Y-47340761D01*
X79597857Y-47340761D01*
X80807380Y-46796476D02*
X80867857Y-46736000D01*
X80988809Y-46675523D01*
X81291190Y-46675523D01*
X81412142Y-46736000D01*
X81472619Y-46796476D01*
X81533095Y-46917428D01*
X81533095Y-47038380D01*
X81472619Y-47219809D01*
X80746904Y-47945523D01*
X81533095Y-47945523D01*
X82621666Y-47098857D02*
X82621666Y-47945523D01*
X82319285Y-46615047D02*
X82016904Y-47522190D01*
X82803095Y-47522190D01*
%TO.C,R23*%
X35365571Y-129479523D02*
X34942238Y-128874761D01*
X34639857Y-129479523D02*
X34639857Y-128209523D01*
X35123666Y-128209523D01*
X35244619Y-128270000D01*
X35305095Y-128330476D01*
X35365571Y-128451428D01*
X35365571Y-128632857D01*
X35305095Y-128753809D01*
X35244619Y-128814285D01*
X35123666Y-128874761D01*
X34639857Y-128874761D01*
X35849380Y-128330476D02*
X35909857Y-128270000D01*
X36030809Y-128209523D01*
X36333190Y-128209523D01*
X36454142Y-128270000D01*
X36514619Y-128330476D01*
X36575095Y-128451428D01*
X36575095Y-128572380D01*
X36514619Y-128753809D01*
X35788904Y-129479523D01*
X36575095Y-129479523D01*
X36998428Y-128209523D02*
X37784619Y-128209523D01*
X37361285Y-128693333D01*
X37542714Y-128693333D01*
X37663666Y-128753809D01*
X37724142Y-128814285D01*
X37784619Y-128935238D01*
X37784619Y-129237619D01*
X37724142Y-129358571D01*
X37663666Y-129419047D01*
X37542714Y-129479523D01*
X37179857Y-129479523D01*
X37058904Y-129419047D01*
X36998428Y-129358571D01*
%TO.C,R22*%
X24469571Y-47564523D02*
X24046238Y-46959761D01*
X23743857Y-47564523D02*
X23743857Y-46294523D01*
X24227666Y-46294523D01*
X24348619Y-46355000D01*
X24409095Y-46415476D01*
X24469571Y-46536428D01*
X24469571Y-46717857D01*
X24409095Y-46838809D01*
X24348619Y-46899285D01*
X24227666Y-46959761D01*
X23743857Y-46959761D01*
X24953380Y-46415476D02*
X25013857Y-46355000D01*
X25134809Y-46294523D01*
X25437190Y-46294523D01*
X25558142Y-46355000D01*
X25618619Y-46415476D01*
X25679095Y-46536428D01*
X25679095Y-46657380D01*
X25618619Y-46838809D01*
X24892904Y-47564523D01*
X25679095Y-47564523D01*
X26162904Y-46415476D02*
X26223380Y-46355000D01*
X26344333Y-46294523D01*
X26646714Y-46294523D01*
X26767666Y-46355000D01*
X26828142Y-46415476D01*
X26888619Y-46536428D01*
X26888619Y-46657380D01*
X26828142Y-46838809D01*
X26102428Y-47564523D01*
X26888619Y-47564523D01*
%TO.C,R21*%
X70557571Y-47945523D02*
X70134238Y-47340761D01*
X69831857Y-47945523D02*
X69831857Y-46675523D01*
X70315666Y-46675523D01*
X70436619Y-46736000D01*
X70497095Y-46796476D01*
X70557571Y-46917428D01*
X70557571Y-47098857D01*
X70497095Y-47219809D01*
X70436619Y-47280285D01*
X70315666Y-47340761D01*
X69831857Y-47340761D01*
X71041380Y-46796476D02*
X71101857Y-46736000D01*
X71222809Y-46675523D01*
X71525190Y-46675523D01*
X71646142Y-46736000D01*
X71706619Y-46796476D01*
X71767095Y-46917428D01*
X71767095Y-47038380D01*
X71706619Y-47219809D01*
X70980904Y-47945523D01*
X71767095Y-47945523D01*
X72976619Y-47945523D02*
X72250904Y-47945523D01*
X72613761Y-47945523D02*
X72613761Y-46675523D01*
X72492809Y-46856952D01*
X72371857Y-46977904D01*
X72250904Y-47038380D01*
%TO.C,R20*%
X24710571Y-129479523D02*
X24287238Y-128874761D01*
X23984857Y-129479523D02*
X23984857Y-128209523D01*
X24468666Y-128209523D01*
X24589619Y-128270000D01*
X24650095Y-128330476D01*
X24710571Y-128451428D01*
X24710571Y-128632857D01*
X24650095Y-128753809D01*
X24589619Y-128814285D01*
X24468666Y-128874761D01*
X23984857Y-128874761D01*
X25194380Y-128330476D02*
X25254857Y-128270000D01*
X25375809Y-128209523D01*
X25678190Y-128209523D01*
X25799142Y-128270000D01*
X25859619Y-128330476D01*
X25920095Y-128451428D01*
X25920095Y-128572380D01*
X25859619Y-128753809D01*
X25133904Y-129479523D01*
X25920095Y-129479523D01*
X26706285Y-128209523D02*
X26827238Y-128209523D01*
X26948190Y-128270000D01*
X27008666Y-128330476D01*
X27069142Y-128451428D01*
X27129619Y-128693333D01*
X27129619Y-128995714D01*
X27069142Y-129237619D01*
X27008666Y-129358571D01*
X26948190Y-129419047D01*
X26827238Y-129479523D01*
X26706285Y-129479523D01*
X26585333Y-129419047D01*
X26524857Y-129358571D01*
X26464380Y-129237619D01*
X26403904Y-128995714D01*
X26403904Y-128693333D01*
X26464380Y-128451428D01*
X26524857Y-128330476D01*
X26585333Y-128270000D01*
X26706285Y-128209523D01*
%TO.C,R18*%
X149932571Y-128717523D02*
X149509238Y-128112761D01*
X149206857Y-128717523D02*
X149206857Y-127447523D01*
X149690666Y-127447523D01*
X149811619Y-127508000D01*
X149872095Y-127568476D01*
X149932571Y-127689428D01*
X149932571Y-127870857D01*
X149872095Y-127991809D01*
X149811619Y-128052285D01*
X149690666Y-128112761D01*
X149206857Y-128112761D01*
X151142095Y-128717523D02*
X150416380Y-128717523D01*
X150779238Y-128717523D02*
X150779238Y-127447523D01*
X150658285Y-127628952D01*
X150537333Y-127749904D01*
X150416380Y-127810380D01*
X151867809Y-127991809D02*
X151746857Y-127931333D01*
X151686380Y-127870857D01*
X151625904Y-127749904D01*
X151625904Y-127689428D01*
X151686380Y-127568476D01*
X151746857Y-127508000D01*
X151867809Y-127447523D01*
X152109714Y-127447523D01*
X152230666Y-127508000D01*
X152291142Y-127568476D01*
X152351619Y-127689428D01*
X152351619Y-127749904D01*
X152291142Y-127870857D01*
X152230666Y-127931333D01*
X152109714Y-127991809D01*
X151867809Y-127991809D01*
X151746857Y-128052285D01*
X151686380Y-128112761D01*
X151625904Y-128233714D01*
X151625904Y-128475619D01*
X151686380Y-128596571D01*
X151746857Y-128657047D01*
X151867809Y-128717523D01*
X152109714Y-128717523D01*
X152230666Y-128657047D01*
X152291142Y-128596571D01*
X152351619Y-128475619D01*
X152351619Y-128233714D01*
X152291142Y-128112761D01*
X152230666Y-128052285D01*
X152109714Y-127991809D01*
%TO.C,R17*%
X150046571Y-48834523D02*
X149623238Y-48229761D01*
X149320857Y-48834523D02*
X149320857Y-47564523D01*
X149804666Y-47564523D01*
X149925619Y-47625000D01*
X149986095Y-47685476D01*
X150046571Y-47806428D01*
X150046571Y-47987857D01*
X149986095Y-48108809D01*
X149925619Y-48169285D01*
X149804666Y-48229761D01*
X149320857Y-48229761D01*
X151256095Y-48834523D02*
X150530380Y-48834523D01*
X150893238Y-48834523D02*
X150893238Y-47564523D01*
X150772285Y-47745952D01*
X150651333Y-47866904D01*
X150530380Y-47927380D01*
X151679428Y-47564523D02*
X152526095Y-47564523D01*
X151981809Y-48834523D01*
%TO.C,R16*%
X105025071Y-128971523D02*
X104601738Y-128366761D01*
X104299357Y-128971523D02*
X104299357Y-127701523D01*
X104783166Y-127701523D01*
X104904119Y-127762000D01*
X104964595Y-127822476D01*
X105025071Y-127943428D01*
X105025071Y-128124857D01*
X104964595Y-128245809D01*
X104904119Y-128306285D01*
X104783166Y-128366761D01*
X104299357Y-128366761D01*
X106234595Y-128971523D02*
X105508880Y-128971523D01*
X105871738Y-128971523D02*
X105871738Y-127701523D01*
X105750785Y-127882952D01*
X105629833Y-128003904D01*
X105508880Y-128064380D01*
X107323166Y-127701523D02*
X107081261Y-127701523D01*
X106960309Y-127762000D01*
X106899833Y-127822476D01*
X106778880Y-128003904D01*
X106718404Y-128245809D01*
X106718404Y-128729619D01*
X106778880Y-128850571D01*
X106839357Y-128911047D01*
X106960309Y-128971523D01*
X107202214Y-128971523D01*
X107323166Y-128911047D01*
X107383642Y-128850571D01*
X107444119Y-128729619D01*
X107444119Y-128427238D01*
X107383642Y-128306285D01*
X107323166Y-128245809D01*
X107202214Y-128185333D01*
X106960309Y-128185333D01*
X106839357Y-128245809D01*
X106778880Y-128306285D01*
X106718404Y-128427238D01*
%TO.C,R15*%
X125421571Y-133797523D02*
X124998238Y-133192761D01*
X124695857Y-133797523D02*
X124695857Y-132527523D01*
X125179666Y-132527523D01*
X125300619Y-132588000D01*
X125361095Y-132648476D01*
X125421571Y-132769428D01*
X125421571Y-132950857D01*
X125361095Y-133071809D01*
X125300619Y-133132285D01*
X125179666Y-133192761D01*
X124695857Y-133192761D01*
X126631095Y-133797523D02*
X125905380Y-133797523D01*
X126268238Y-133797523D02*
X126268238Y-132527523D01*
X126147285Y-132708952D01*
X126026333Y-132829904D01*
X125905380Y-132890380D01*
X127780142Y-132527523D02*
X127175380Y-132527523D01*
X127114904Y-133132285D01*
X127175380Y-133071809D01*
X127296333Y-133011333D01*
X127598714Y-133011333D01*
X127719666Y-133071809D01*
X127780142Y-133132285D01*
X127840619Y-133253238D01*
X127840619Y-133555619D01*
X127780142Y-133676571D01*
X127719666Y-133737047D01*
X127598714Y-133797523D01*
X127296333Y-133797523D01*
X127175380Y-133737047D01*
X127114904Y-133676571D01*
%TO.C,R14*%
X123389571Y-53914523D02*
X122966238Y-53309761D01*
X122663857Y-53914523D02*
X122663857Y-52644523D01*
X123147666Y-52644523D01*
X123268619Y-52705000D01*
X123329095Y-52765476D01*
X123389571Y-52886428D01*
X123389571Y-53067857D01*
X123329095Y-53188809D01*
X123268619Y-53249285D01*
X123147666Y-53309761D01*
X122663857Y-53309761D01*
X124599095Y-53914523D02*
X123873380Y-53914523D01*
X124236238Y-53914523D02*
X124236238Y-52644523D01*
X124115285Y-52825952D01*
X123994333Y-52946904D01*
X123873380Y-53007380D01*
X125687666Y-53067857D02*
X125687666Y-53914523D01*
X125385285Y-52584047D02*
X125082904Y-53491190D01*
X125869095Y-53491190D01*
%TO.C,R13*%
X82228571Y-134432523D02*
X81805238Y-133827761D01*
X81502857Y-134432523D02*
X81502857Y-133162523D01*
X81986666Y-133162523D01*
X82107619Y-133223000D01*
X82168095Y-133283476D01*
X82228571Y-133404428D01*
X82228571Y-133585857D01*
X82168095Y-133706809D01*
X82107619Y-133767285D01*
X81986666Y-133827761D01*
X81502857Y-133827761D01*
X83438095Y-134432523D02*
X82712380Y-134432523D01*
X83075238Y-134432523D02*
X83075238Y-133162523D01*
X82954285Y-133343952D01*
X82833333Y-133464904D01*
X82712380Y-133525380D01*
X83861428Y-133162523D02*
X84647619Y-133162523D01*
X84224285Y-133646333D01*
X84405714Y-133646333D01*
X84526666Y-133706809D01*
X84587142Y-133767285D01*
X84647619Y-133888238D01*
X84647619Y-134190619D01*
X84587142Y-134311571D01*
X84526666Y-134372047D01*
X84405714Y-134432523D01*
X84042857Y-134432523D01*
X83921904Y-134372047D01*
X83861428Y-134311571D01*
%TO.C,R9*%
X104423333Y-47564523D02*
X104000000Y-46959761D01*
X103697619Y-47564523D02*
X103697619Y-46294523D01*
X104181428Y-46294523D01*
X104302380Y-46355000D01*
X104362857Y-46415476D01*
X104423333Y-46536428D01*
X104423333Y-46717857D01*
X104362857Y-46838809D01*
X104302380Y-46899285D01*
X104181428Y-46959761D01*
X103697619Y-46959761D01*
X105028095Y-47564523D02*
X105270000Y-47564523D01*
X105390952Y-47504047D01*
X105451428Y-47443571D01*
X105572380Y-47262142D01*
X105632857Y-47020238D01*
X105632857Y-46536428D01*
X105572380Y-46415476D01*
X105511904Y-46355000D01*
X105390952Y-46294523D01*
X105149047Y-46294523D01*
X105028095Y-46355000D01*
X104967619Y-46415476D01*
X104907142Y-46536428D01*
X104907142Y-46838809D01*
X104967619Y-46959761D01*
X105028095Y-47020238D01*
X105149047Y-47080714D01*
X105390952Y-47080714D01*
X105511904Y-47020238D01*
X105572380Y-46959761D01*
X105632857Y-46838809D01*
%TO.C,R8*%
X58208333Y-129479523D02*
X57785000Y-128874761D01*
X57482619Y-129479523D02*
X57482619Y-128209523D01*
X57966428Y-128209523D01*
X58087380Y-128270000D01*
X58147857Y-128330476D01*
X58208333Y-128451428D01*
X58208333Y-128632857D01*
X58147857Y-128753809D01*
X58087380Y-128814285D01*
X57966428Y-128874761D01*
X57482619Y-128874761D01*
X58934047Y-128753809D02*
X58813095Y-128693333D01*
X58752619Y-128632857D01*
X58692142Y-128511904D01*
X58692142Y-128451428D01*
X58752619Y-128330476D01*
X58813095Y-128270000D01*
X58934047Y-128209523D01*
X59175952Y-128209523D01*
X59296904Y-128270000D01*
X59357380Y-128330476D01*
X59417857Y-128451428D01*
X59417857Y-128511904D01*
X59357380Y-128632857D01*
X59296904Y-128693333D01*
X59175952Y-128753809D01*
X58934047Y-128753809D01*
X58813095Y-128814285D01*
X58752619Y-128874761D01*
X58692142Y-128995714D01*
X58692142Y-129237619D01*
X58752619Y-129358571D01*
X58813095Y-129419047D01*
X58934047Y-129479523D01*
X59175952Y-129479523D01*
X59296904Y-129419047D01*
X59357380Y-129358571D01*
X59417857Y-129237619D01*
X59417857Y-128995714D01*
X59357380Y-128874761D01*
X59296904Y-128814285D01*
X59175952Y-128753809D01*
%TO.C,R7*%
X58449333Y-47564523D02*
X58026000Y-46959761D01*
X57723619Y-47564523D02*
X57723619Y-46294523D01*
X58207428Y-46294523D01*
X58328380Y-46355000D01*
X58388857Y-46415476D01*
X58449333Y-46536428D01*
X58449333Y-46717857D01*
X58388857Y-46838809D01*
X58328380Y-46899285D01*
X58207428Y-46959761D01*
X57723619Y-46959761D01*
X58872666Y-46294523D02*
X59719333Y-46294523D01*
X59175047Y-47564523D01*
%TO.C,R6*%
X80941333Y-53406523D02*
X80518000Y-52801761D01*
X80215619Y-53406523D02*
X80215619Y-52136523D01*
X80699428Y-52136523D01*
X80820380Y-52197000D01*
X80880857Y-52257476D01*
X80941333Y-52378428D01*
X80941333Y-52559857D01*
X80880857Y-52680809D01*
X80820380Y-52741285D01*
X80699428Y-52801761D01*
X80215619Y-52801761D01*
X82029904Y-52136523D02*
X81788000Y-52136523D01*
X81667047Y-52197000D01*
X81606571Y-52257476D01*
X81485619Y-52438904D01*
X81425142Y-52680809D01*
X81425142Y-53164619D01*
X81485619Y-53285571D01*
X81546095Y-53346047D01*
X81667047Y-53406523D01*
X81908952Y-53406523D01*
X82029904Y-53346047D01*
X82090380Y-53285571D01*
X82150857Y-53164619D01*
X82150857Y-52862238D01*
X82090380Y-52741285D01*
X82029904Y-52680809D01*
X81908952Y-52620333D01*
X81667047Y-52620333D01*
X81546095Y-52680809D01*
X81485619Y-52741285D01*
X81425142Y-52862238D01*
%TO.C,R5*%
X34726333Y-134940523D02*
X34303000Y-134335761D01*
X34000619Y-134940523D02*
X34000619Y-133670523D01*
X34484428Y-133670523D01*
X34605380Y-133731000D01*
X34665857Y-133791476D01*
X34726333Y-133912428D01*
X34726333Y-134093857D01*
X34665857Y-134214809D01*
X34605380Y-134275285D01*
X34484428Y-134335761D01*
X34000619Y-134335761D01*
X35875380Y-133670523D02*
X35270619Y-133670523D01*
X35210142Y-134275285D01*
X35270619Y-134214809D01*
X35391571Y-134154333D01*
X35693952Y-134154333D01*
X35814904Y-134214809D01*
X35875380Y-134275285D01*
X35935857Y-134396238D01*
X35935857Y-134698619D01*
X35875380Y-134819571D01*
X35814904Y-134880047D01*
X35693952Y-134940523D01*
X35391571Y-134940523D01*
X35270619Y-134880047D01*
X35210142Y-134819571D01*
%TO.C,R4*%
X32427333Y-53660523D02*
X32004000Y-53055761D01*
X31701619Y-53660523D02*
X31701619Y-52390523D01*
X32185428Y-52390523D01*
X32306380Y-52451000D01*
X32366857Y-52511476D01*
X32427333Y-52632428D01*
X32427333Y-52813857D01*
X32366857Y-52934809D01*
X32306380Y-52995285D01*
X32185428Y-53055761D01*
X31701619Y-53055761D01*
X33515904Y-52813857D02*
X33515904Y-53660523D01*
X33213523Y-52330047D02*
X32911142Y-53237190D01*
X33697333Y-53237190D01*
%TO.C,R1*%
X36097333Y-47564523D02*
X35674000Y-46959761D01*
X35371619Y-47564523D02*
X35371619Y-46294523D01*
X35855428Y-46294523D01*
X35976380Y-46355000D01*
X36036857Y-46415476D01*
X36097333Y-46536428D01*
X36097333Y-46717857D01*
X36036857Y-46838809D01*
X35976380Y-46899285D01*
X35855428Y-46959761D01*
X35371619Y-46959761D01*
X37306857Y-47564523D02*
X36581142Y-47564523D01*
X36944000Y-47564523D02*
X36944000Y-46294523D01*
X36823047Y-46475952D01*
X36702095Y-46596904D01*
X36581142Y-46657380D01*
%TO.C,IC6*%
X136235238Y-128519523D02*
X136235238Y-127249523D01*
X137565714Y-128398571D02*
X137505238Y-128459047D01*
X137323809Y-128519523D01*
X137202857Y-128519523D01*
X137021428Y-128459047D01*
X136900476Y-128338095D01*
X136840000Y-128217142D01*
X136779523Y-127975238D01*
X136779523Y-127793809D01*
X136840000Y-127551904D01*
X136900476Y-127430952D01*
X137021428Y-127310000D01*
X137202857Y-127249523D01*
X137323809Y-127249523D01*
X137505238Y-127310000D01*
X137565714Y-127370476D01*
X138654285Y-127249523D02*
X138412380Y-127249523D01*
X138291428Y-127310000D01*
X138230952Y-127370476D01*
X138110000Y-127551904D01*
X138049523Y-127793809D01*
X138049523Y-128277619D01*
X138110000Y-128398571D01*
X138170476Y-128459047D01*
X138291428Y-128519523D01*
X138533333Y-128519523D01*
X138654285Y-128459047D01*
X138714761Y-128398571D01*
X138775238Y-128277619D01*
X138775238Y-127975238D01*
X138714761Y-127854285D01*
X138654285Y-127793809D01*
X138533333Y-127733333D01*
X138291428Y-127733333D01*
X138170476Y-127793809D01*
X138110000Y-127854285D01*
X138049523Y-127975238D01*
%TO.C,IC5*%
X136682238Y-48580523D02*
X136682238Y-47310523D01*
X138012714Y-48459571D02*
X137952238Y-48520047D01*
X137770809Y-48580523D01*
X137649857Y-48580523D01*
X137468428Y-48520047D01*
X137347476Y-48399095D01*
X137287000Y-48278142D01*
X137226523Y-48036238D01*
X137226523Y-47854809D01*
X137287000Y-47612904D01*
X137347476Y-47491952D01*
X137468428Y-47371000D01*
X137649857Y-47310523D01*
X137770809Y-47310523D01*
X137952238Y-47371000D01*
X138012714Y-47431476D01*
X139161761Y-47310523D02*
X138557000Y-47310523D01*
X138496523Y-47915285D01*
X138557000Y-47854809D01*
X138677952Y-47794333D01*
X138980333Y-47794333D01*
X139101285Y-47854809D01*
X139161761Y-47915285D01*
X139222238Y-48036238D01*
X139222238Y-48338619D01*
X139161761Y-48459571D01*
X139101285Y-48520047D01*
X138980333Y-48580523D01*
X138677952Y-48580523D01*
X138557000Y-48520047D01*
X138496523Y-48459571D01*
%TO.C,IC4*%
X91597238Y-129098523D02*
X91597238Y-127828523D01*
X92927714Y-128977571D02*
X92867238Y-129038047D01*
X92685809Y-129098523D01*
X92564857Y-129098523D01*
X92383428Y-129038047D01*
X92262476Y-128917095D01*
X92202000Y-128796142D01*
X92141523Y-128554238D01*
X92141523Y-128372809D01*
X92202000Y-128130904D01*
X92262476Y-128009952D01*
X92383428Y-127889000D01*
X92564857Y-127828523D01*
X92685809Y-127828523D01*
X92867238Y-127889000D01*
X92927714Y-127949476D01*
X94016285Y-128251857D02*
X94016285Y-129098523D01*
X93713904Y-127768047D02*
X93411523Y-128675190D01*
X94197714Y-128675190D01*
%TO.C,IC3*%
X89946238Y-47691523D02*
X89946238Y-46421523D01*
X91276714Y-47570571D02*
X91216238Y-47631047D01*
X91034809Y-47691523D01*
X90913857Y-47691523D01*
X90732428Y-47631047D01*
X90611476Y-47510095D01*
X90551000Y-47389142D01*
X90490523Y-47147238D01*
X90490523Y-46965809D01*
X90551000Y-46723904D01*
X90611476Y-46602952D01*
X90732428Y-46482000D01*
X90913857Y-46421523D01*
X91034809Y-46421523D01*
X91216238Y-46482000D01*
X91276714Y-46542476D01*
X91700047Y-46421523D02*
X92486238Y-46421523D01*
X92062904Y-46905333D01*
X92244333Y-46905333D01*
X92365285Y-46965809D01*
X92425761Y-47026285D01*
X92486238Y-47147238D01*
X92486238Y-47449619D01*
X92425761Y-47570571D01*
X92365285Y-47631047D01*
X92244333Y-47691523D01*
X91881476Y-47691523D01*
X91760523Y-47631047D01*
X91700047Y-47570571D01*
%TO.C,IC2*%
X46131238Y-129352523D02*
X46131238Y-128082523D01*
X47461714Y-129231571D02*
X47401238Y-129292047D01*
X47219809Y-129352523D01*
X47098857Y-129352523D01*
X46917428Y-129292047D01*
X46796476Y-129171095D01*
X46736000Y-129050142D01*
X46675523Y-128808238D01*
X46675523Y-128626809D01*
X46736000Y-128384904D01*
X46796476Y-128263952D01*
X46917428Y-128143000D01*
X47098857Y-128082523D01*
X47219809Y-128082523D01*
X47401238Y-128143000D01*
X47461714Y-128203476D01*
X47945523Y-128203476D02*
X48006000Y-128143000D01*
X48126952Y-128082523D01*
X48429333Y-128082523D01*
X48550285Y-128143000D01*
X48610761Y-128203476D01*
X48671238Y-128324428D01*
X48671238Y-128445380D01*
X48610761Y-128626809D01*
X47885047Y-129352523D01*
X48671238Y-129352523D01*
%TO.C,IC1*%
X44607238Y-47564523D02*
X44607238Y-46294523D01*
X45937714Y-47443571D02*
X45877238Y-47504047D01*
X45695809Y-47564523D01*
X45574857Y-47564523D01*
X45393428Y-47504047D01*
X45272476Y-47383095D01*
X45212000Y-47262142D01*
X45151523Y-47020238D01*
X45151523Y-46838809D01*
X45212000Y-46596904D01*
X45272476Y-46475952D01*
X45393428Y-46355000D01*
X45574857Y-46294523D01*
X45695809Y-46294523D01*
X45877238Y-46355000D01*
X45937714Y-46415476D01*
X47147238Y-47564523D02*
X46421523Y-47564523D01*
X46784380Y-47564523D02*
X46784380Y-46294523D01*
X46663428Y-46475952D01*
X46542476Y-46596904D01*
X46421523Y-46657380D01*
%TO.C,C12*%
X140220571Y-137613571D02*
X140160095Y-137674047D01*
X139978666Y-137734523D01*
X139857714Y-137734523D01*
X139676285Y-137674047D01*
X139555333Y-137553095D01*
X139494857Y-137432142D01*
X139434380Y-137190238D01*
X139434380Y-137008809D01*
X139494857Y-136766904D01*
X139555333Y-136645952D01*
X139676285Y-136525000D01*
X139857714Y-136464523D01*
X139978666Y-136464523D01*
X140160095Y-136525000D01*
X140220571Y-136585476D01*
X141430095Y-137734523D02*
X140704380Y-137734523D01*
X141067238Y-137734523D02*
X141067238Y-136464523D01*
X140946285Y-136645952D01*
X140825333Y-136766904D01*
X140704380Y-136827380D01*
X141913904Y-136585476D02*
X141974380Y-136525000D01*
X142095333Y-136464523D01*
X142397714Y-136464523D01*
X142518666Y-136525000D01*
X142579142Y-136585476D01*
X142639619Y-136706428D01*
X142639619Y-136827380D01*
X142579142Y-137008809D01*
X141853428Y-137734523D01*
X142639619Y-137734523D01*
%TO.C,C11*%
X137807571Y-56841571D02*
X137747095Y-56902047D01*
X137565666Y-56962523D01*
X137444714Y-56962523D01*
X137263285Y-56902047D01*
X137142333Y-56781095D01*
X137081857Y-56660142D01*
X137021380Y-56418238D01*
X137021380Y-56236809D01*
X137081857Y-55994904D01*
X137142333Y-55873952D01*
X137263285Y-55753000D01*
X137444714Y-55692523D01*
X137565666Y-55692523D01*
X137747095Y-55753000D01*
X137807571Y-55813476D01*
X139017095Y-56962523D02*
X138291380Y-56962523D01*
X138654238Y-56962523D02*
X138654238Y-55692523D01*
X138533285Y-55873952D01*
X138412333Y-55994904D01*
X138291380Y-56055380D01*
X140226619Y-56962523D02*
X139500904Y-56962523D01*
X139863761Y-56962523D02*
X139863761Y-55692523D01*
X139742809Y-55873952D01*
X139621857Y-55994904D01*
X139500904Y-56055380D01*
%TO.C,C10*%
X96151571Y-137359571D02*
X96091095Y-137420047D01*
X95909666Y-137480523D01*
X95788714Y-137480523D01*
X95607285Y-137420047D01*
X95486333Y-137299095D01*
X95425857Y-137178142D01*
X95365380Y-136936238D01*
X95365380Y-136754809D01*
X95425857Y-136512904D01*
X95486333Y-136391952D01*
X95607285Y-136271000D01*
X95788714Y-136210523D01*
X95909666Y-136210523D01*
X96091095Y-136271000D01*
X96151571Y-136331476D01*
X97361095Y-137480523D02*
X96635380Y-137480523D01*
X96998238Y-137480523D02*
X96998238Y-136210523D01*
X96877285Y-136391952D01*
X96756333Y-136512904D01*
X96635380Y-136573380D01*
X98147285Y-136210523D02*
X98268238Y-136210523D01*
X98389190Y-136271000D01*
X98449666Y-136331476D01*
X98510142Y-136452428D01*
X98570619Y-136694333D01*
X98570619Y-136996714D01*
X98510142Y-137238619D01*
X98449666Y-137359571D01*
X98389190Y-137420047D01*
X98268238Y-137480523D01*
X98147285Y-137480523D01*
X98026333Y-137420047D01*
X97965857Y-137359571D01*
X97905380Y-137238619D01*
X97844904Y-136996714D01*
X97844904Y-136694333D01*
X97905380Y-136452428D01*
X97965857Y-136331476D01*
X98026333Y-136271000D01*
X98147285Y-136210523D01*
%TO.C,C3*%
X94216333Y-55952571D02*
X94155857Y-56013047D01*
X93974428Y-56073523D01*
X93853476Y-56073523D01*
X93672047Y-56013047D01*
X93551095Y-55892095D01*
X93490619Y-55771142D01*
X93430142Y-55529238D01*
X93430142Y-55347809D01*
X93490619Y-55105904D01*
X93551095Y-54984952D01*
X93672047Y-54864000D01*
X93853476Y-54803523D01*
X93974428Y-54803523D01*
X94155857Y-54864000D01*
X94216333Y-54924476D01*
X94639666Y-54803523D02*
X95425857Y-54803523D01*
X95002523Y-55287333D01*
X95183952Y-55287333D01*
X95304904Y-55347809D01*
X95365380Y-55408285D01*
X95425857Y-55529238D01*
X95425857Y-55831619D01*
X95365380Y-55952571D01*
X95304904Y-56013047D01*
X95183952Y-56073523D01*
X94821095Y-56073523D01*
X94700142Y-56013047D01*
X94639666Y-55952571D01*
%TO.C,C2*%
X49639333Y-137740571D02*
X49578857Y-137801047D01*
X49397428Y-137861523D01*
X49276476Y-137861523D01*
X49095047Y-137801047D01*
X48974095Y-137680095D01*
X48913619Y-137559142D01*
X48853142Y-137317238D01*
X48853142Y-137135809D01*
X48913619Y-136893904D01*
X48974095Y-136772952D01*
X49095047Y-136652000D01*
X49276476Y-136591523D01*
X49397428Y-136591523D01*
X49578857Y-136652000D01*
X49639333Y-136712476D01*
X50123142Y-136712476D02*
X50183619Y-136652000D01*
X50304571Y-136591523D01*
X50606952Y-136591523D01*
X50727904Y-136652000D01*
X50788380Y-136712476D01*
X50848857Y-136833428D01*
X50848857Y-136954380D01*
X50788380Y-137135809D01*
X50062666Y-137861523D01*
X50848857Y-137861523D01*
%TO.C,C1*%
X47353333Y-56460571D02*
X47292857Y-56521047D01*
X47111428Y-56581523D01*
X46990476Y-56581523D01*
X46809047Y-56521047D01*
X46688095Y-56400095D01*
X46627619Y-56279142D01*
X46567142Y-56037238D01*
X46567142Y-55855809D01*
X46627619Y-55613904D01*
X46688095Y-55492952D01*
X46809047Y-55372000D01*
X46990476Y-55311523D01*
X47111428Y-55311523D01*
X47292857Y-55372000D01*
X47353333Y-55432476D01*
X48562857Y-56581523D02*
X47837142Y-56581523D01*
X48200000Y-56581523D02*
X48200000Y-55311523D01*
X48079047Y-55492952D01*
X47958095Y-55613904D01*
X47837142Y-55674380D01*
%TO.C,J12*%
D12*
X144033976Y-126162380D02*
X144033976Y-126876666D01*
X143986357Y-127019523D01*
X143891119Y-127114761D01*
X143748261Y-127162380D01*
X143653023Y-127162380D01*
X145033976Y-127162380D02*
X144462547Y-127162380D01*
X144748261Y-127162380D02*
X144748261Y-126162380D01*
X144653023Y-126305238D01*
X144557785Y-126400476D01*
X144462547Y-126448095D01*
X145414928Y-126257619D02*
X145462547Y-126210000D01*
X145557785Y-126162380D01*
X145795880Y-126162380D01*
X145891119Y-126210000D01*
X145938738Y-126257619D01*
X145986357Y-126352857D01*
X145986357Y-126448095D01*
X145938738Y-126590952D01*
X145367309Y-127162380D01*
X145986357Y-127162380D01*
%TO.C,J11*%
X144033976Y-46215880D02*
X144033976Y-46930166D01*
X143986357Y-47073023D01*
X143891119Y-47168261D01*
X143748261Y-47215880D01*
X143653023Y-47215880D01*
X145033976Y-47215880D02*
X144462547Y-47215880D01*
X144748261Y-47215880D02*
X144748261Y-46215880D01*
X144653023Y-46358738D01*
X144557785Y-46453976D01*
X144462547Y-46501595D01*
X145986357Y-47215880D02*
X145414928Y-47215880D01*
X145700642Y-47215880D02*
X145700642Y-46215880D01*
X145605404Y-46358738D01*
X145510166Y-46453976D01*
X145414928Y-46501595D01*
%TO.C,J10*%
X99202976Y-126642880D02*
X99202976Y-127357166D01*
X99155357Y-127500023D01*
X99060119Y-127595261D01*
X98917261Y-127642880D01*
X98822023Y-127642880D01*
X100202976Y-127642880D02*
X99631547Y-127642880D01*
X99917261Y-127642880D02*
X99917261Y-126642880D01*
X99822023Y-126785738D01*
X99726785Y-126880976D01*
X99631547Y-126928595D01*
X100822023Y-126642880D02*
X100917261Y-126642880D01*
X101012500Y-126690500D01*
X101060119Y-126738119D01*
X101107738Y-126833357D01*
X101155357Y-127023833D01*
X101155357Y-127261928D01*
X101107738Y-127452404D01*
X101060119Y-127547642D01*
X101012500Y-127595261D01*
X100917261Y-127642880D01*
X100822023Y-127642880D01*
X100726785Y-127595261D01*
X100679166Y-127547642D01*
X100631547Y-127452404D01*
X100583928Y-127261928D01*
X100583928Y-127023833D01*
X100631547Y-126833357D01*
X100679166Y-126738119D01*
X100726785Y-126690500D01*
X100822023Y-126642880D01*
%TO.C,J9*%
X118538666Y-130988380D02*
X118538666Y-131702666D01*
X118491047Y-131845523D01*
X118395809Y-131940761D01*
X118252952Y-131988380D01*
X118157714Y-131988380D01*
X119062476Y-131988380D02*
X119252952Y-131988380D01*
X119348190Y-131940761D01*
X119395809Y-131893142D01*
X119491047Y-131750285D01*
X119538666Y-131559809D01*
X119538666Y-131178857D01*
X119491047Y-131083619D01*
X119443428Y-131036000D01*
X119348190Y-130988380D01*
X119157714Y-130988380D01*
X119062476Y-131036000D01*
X119014857Y-131083619D01*
X118967238Y-131178857D01*
X118967238Y-131416952D01*
X119014857Y-131512190D01*
X119062476Y-131559809D01*
X119157714Y-131607428D01*
X119348190Y-131607428D01*
X119443428Y-131559809D01*
X119491047Y-131512190D01*
X119538666Y-131416952D01*
%TO.C,J8*%
X115998666Y-50978380D02*
X115998666Y-51692666D01*
X115951047Y-51835523D01*
X115855809Y-51930761D01*
X115712952Y-51978380D01*
X115617714Y-51978380D01*
X116617714Y-51406952D02*
X116522476Y-51359333D01*
X116474857Y-51311714D01*
X116427238Y-51216476D01*
X116427238Y-51168857D01*
X116474857Y-51073619D01*
X116522476Y-51026000D01*
X116617714Y-50978380D01*
X116808190Y-50978380D01*
X116903428Y-51026000D01*
X116951047Y-51073619D01*
X116998666Y-51168857D01*
X116998666Y-51216476D01*
X116951047Y-51311714D01*
X116903428Y-51359333D01*
X116808190Y-51406952D01*
X116617714Y-51406952D01*
X116522476Y-51454571D01*
X116474857Y-51502190D01*
X116427238Y-51597428D01*
X116427238Y-51787904D01*
X116474857Y-51883142D01*
X116522476Y-51930761D01*
X116617714Y-51978380D01*
X116808190Y-51978380D01*
X116903428Y-51930761D01*
X116951047Y-51883142D01*
X116998666Y-51787904D01*
X116998666Y-51597428D01*
X116951047Y-51502190D01*
X116903428Y-51454571D01*
X116808190Y-51406952D01*
%TO.C,J7*%
X74596666Y-132258380D02*
X74596666Y-132972666D01*
X74549047Y-133115523D01*
X74453809Y-133210761D01*
X74310952Y-133258380D01*
X74215714Y-133258380D01*
X74977619Y-132258380D02*
X75644285Y-132258380D01*
X75215714Y-133258380D01*
%TO.C,J6*%
X96948666Y-45898380D02*
X96948666Y-46612666D01*
X96901047Y-46755523D01*
X96805809Y-46850761D01*
X96662952Y-46898380D01*
X96567714Y-46898380D01*
X97853428Y-45898380D02*
X97662952Y-45898380D01*
X97567714Y-45946000D01*
X97520095Y-45993619D01*
X97424857Y-46136476D01*
X97377238Y-46326952D01*
X97377238Y-46707904D01*
X97424857Y-46803142D01*
X97472476Y-46850761D01*
X97567714Y-46898380D01*
X97758190Y-46898380D01*
X97853428Y-46850761D01*
X97901047Y-46803142D01*
X97948666Y-46707904D01*
X97948666Y-46469809D01*
X97901047Y-46374571D01*
X97853428Y-46326952D01*
X97758190Y-46279333D01*
X97567714Y-46279333D01*
X97472476Y-46326952D01*
X97424857Y-46374571D01*
X97377238Y-46469809D01*
%TO.C,J5*%
X52562166Y-126987880D02*
X52562166Y-127702166D01*
X52514547Y-127845023D01*
X52419309Y-127940261D01*
X52276452Y-127987880D01*
X52181214Y-127987880D01*
X53514547Y-126987880D02*
X53038357Y-126987880D01*
X52990738Y-127464071D01*
X53038357Y-127416452D01*
X53133595Y-127368833D01*
X53371690Y-127368833D01*
X53466928Y-127416452D01*
X53514547Y-127464071D01*
X53562166Y-127559309D01*
X53562166Y-127797404D01*
X53514547Y-127892642D01*
X53466928Y-127940261D01*
X53371690Y-127987880D01*
X53133595Y-127987880D01*
X53038357Y-127940261D01*
X52990738Y-127892642D01*
%TO.C,J4*%
X50720666Y-46152380D02*
X50720666Y-46866666D01*
X50673047Y-47009523D01*
X50577809Y-47104761D01*
X50434952Y-47152380D01*
X50339714Y-47152380D01*
X51625428Y-46485714D02*
X51625428Y-47152380D01*
X51387333Y-46104761D02*
X51149238Y-46819047D01*
X51768285Y-46819047D01*
%TO.C,J3*%
X72310666Y-50978380D02*
X72310666Y-51692666D01*
X72263047Y-51835523D01*
X72167809Y-51930761D01*
X72024952Y-51978380D01*
X71929714Y-51978380D01*
X72691619Y-50978380D02*
X73310666Y-50978380D01*
X72977333Y-51359333D01*
X73120190Y-51359333D01*
X73215428Y-51406952D01*
X73263047Y-51454571D01*
X73310666Y-51549809D01*
X73310666Y-51787904D01*
X73263047Y-51883142D01*
X73215428Y-51930761D01*
X73120190Y-51978380D01*
X72834476Y-51978380D01*
X72739238Y-51930761D01*
X72691619Y-51883142D01*
%TO.C,J2*%
X23415666Y-131623380D02*
X23415666Y-132337666D01*
X23368047Y-132480523D01*
X23272809Y-132575761D01*
X23129952Y-132623380D01*
X23034714Y-132623380D01*
X23844238Y-131718619D02*
X23891857Y-131671000D01*
X23987095Y-131623380D01*
X24225190Y-131623380D01*
X24320428Y-131671000D01*
X24368047Y-131718619D01*
X24415666Y-131813857D01*
X24415666Y-131909095D01*
X24368047Y-132051952D01*
X23796619Y-132623380D01*
X24415666Y-132623380D01*
%TO.C,J1*%
X22526666Y-50724380D02*
X22526666Y-51438666D01*
X22479047Y-51581523D01*
X22383809Y-51676761D01*
X22240952Y-51724380D01*
X22145714Y-51724380D01*
X23526666Y-51724380D02*
X22955238Y-51724380D01*
X23240952Y-51724380D02*
X23240952Y-50724380D01*
X23145714Y-50867238D01*
X23050476Y-50962476D01*
X22955238Y-51010095D01*
%TO.C,C4*%
D13*
X41490333Y-29028571D02*
X41429857Y-29089047D01*
X41248428Y-29149523D01*
X41127476Y-29149523D01*
X40946047Y-29089047D01*
X40825095Y-28968095D01*
X40764619Y-28847142D01*
X40704142Y-28605238D01*
X40704142Y-28423809D01*
X40764619Y-28181904D01*
X40825095Y-28060952D01*
X40946047Y-27940000D01*
X41127476Y-27879523D01*
X41248428Y-27879523D01*
X41429857Y-27940000D01*
X41490333Y-28000476D01*
X42578904Y-28302857D02*
X42578904Y-29149523D01*
X42276523Y-27819047D02*
X41974142Y-28726190D01*
X42760333Y-28726190D01*
%TO.C,C5*%
X41779333Y-110562571D02*
X41718857Y-110623047D01*
X41537428Y-110683523D01*
X41416476Y-110683523D01*
X41235047Y-110623047D01*
X41114095Y-110502095D01*
X41053619Y-110381142D01*
X40993142Y-110139238D01*
X40993142Y-109957809D01*
X41053619Y-109715904D01*
X41114095Y-109594952D01*
X41235047Y-109474000D01*
X41416476Y-109413523D01*
X41537428Y-109413523D01*
X41718857Y-109474000D01*
X41779333Y-109534476D01*
X42928380Y-109413523D02*
X42323619Y-109413523D01*
X42263142Y-110018285D01*
X42323619Y-109957809D01*
X42444571Y-109897333D01*
X42746952Y-109897333D01*
X42867904Y-109957809D01*
X42928380Y-110018285D01*
X42988857Y-110139238D01*
X42988857Y-110441619D01*
X42928380Y-110562571D01*
X42867904Y-110623047D01*
X42746952Y-110683523D01*
X42444571Y-110683523D01*
X42323619Y-110623047D01*
X42263142Y-110562571D01*
%TO.C,C6*%
X87845333Y-28774571D02*
X87784857Y-28835047D01*
X87603428Y-28895523D01*
X87482476Y-28895523D01*
X87301047Y-28835047D01*
X87180095Y-28714095D01*
X87119619Y-28593142D01*
X87059142Y-28351238D01*
X87059142Y-28169809D01*
X87119619Y-27927904D01*
X87180095Y-27806952D01*
X87301047Y-27686000D01*
X87482476Y-27625523D01*
X87603428Y-27625523D01*
X87784857Y-27686000D01*
X87845333Y-27746476D01*
X88933904Y-27625523D02*
X88692000Y-27625523D01*
X88571047Y-27686000D01*
X88510571Y-27746476D01*
X88389619Y-27927904D01*
X88329142Y-28169809D01*
X88329142Y-28653619D01*
X88389619Y-28774571D01*
X88450095Y-28835047D01*
X88571047Y-28895523D01*
X88812952Y-28895523D01*
X88933904Y-28835047D01*
X88994380Y-28774571D01*
X89054857Y-28653619D01*
X89054857Y-28351238D01*
X88994380Y-28230285D01*
X88933904Y-28169809D01*
X88812952Y-28109333D01*
X88571047Y-28109333D01*
X88450095Y-28169809D01*
X88389619Y-28230285D01*
X88329142Y-28351238D01*
%TO.C,C7*%
X41744333Y-77669571D02*
X41683857Y-77730047D01*
X41502428Y-77790523D01*
X41381476Y-77790523D01*
X41200047Y-77730047D01*
X41079095Y-77609095D01*
X41018619Y-77488142D01*
X40958142Y-77246238D01*
X40958142Y-77064809D01*
X41018619Y-76822904D01*
X41079095Y-76701952D01*
X41200047Y-76581000D01*
X41381476Y-76520523D01*
X41502428Y-76520523D01*
X41683857Y-76581000D01*
X41744333Y-76641476D01*
X42167666Y-76520523D02*
X43014333Y-76520523D01*
X42470047Y-77790523D01*
%TO.C,C8*%
X41871333Y-158568571D02*
X41810857Y-158629047D01*
X41629428Y-158689523D01*
X41508476Y-158689523D01*
X41327047Y-158629047D01*
X41206095Y-158508095D01*
X41145619Y-158387142D01*
X41085142Y-158145238D01*
X41085142Y-157963809D01*
X41145619Y-157721904D01*
X41206095Y-157600952D01*
X41327047Y-157480000D01*
X41508476Y-157419523D01*
X41629428Y-157419523D01*
X41810857Y-157480000D01*
X41871333Y-157540476D01*
X42597047Y-157963809D02*
X42476095Y-157903333D01*
X42415619Y-157842857D01*
X42355142Y-157721904D01*
X42355142Y-157661428D01*
X42415619Y-157540476D01*
X42476095Y-157480000D01*
X42597047Y-157419523D01*
X42838952Y-157419523D01*
X42959904Y-157480000D01*
X43020380Y-157540476D01*
X43080857Y-157661428D01*
X43080857Y-157721904D01*
X43020380Y-157842857D01*
X42959904Y-157903333D01*
X42838952Y-157963809D01*
X42597047Y-157963809D01*
X42476095Y-158024285D01*
X42415619Y-158084761D01*
X42355142Y-158205714D01*
X42355142Y-158447619D01*
X42415619Y-158568571D01*
X42476095Y-158629047D01*
X42597047Y-158689523D01*
X42838952Y-158689523D01*
X42959904Y-158629047D01*
X43020380Y-158568571D01*
X43080857Y-158447619D01*
X43080857Y-158205714D01*
X43020380Y-158084761D01*
X42959904Y-158024285D01*
X42838952Y-157963809D01*
%TO.C,C9*%
X87972333Y-77796571D02*
X87911857Y-77857047D01*
X87730428Y-77917523D01*
X87609476Y-77917523D01*
X87428047Y-77857047D01*
X87307095Y-77736095D01*
X87246619Y-77615142D01*
X87186142Y-77373238D01*
X87186142Y-77191809D01*
X87246619Y-76949904D01*
X87307095Y-76828952D01*
X87428047Y-76708000D01*
X87609476Y-76647523D01*
X87730428Y-76647523D01*
X87911857Y-76708000D01*
X87972333Y-76768476D01*
X88577095Y-77917523D02*
X88819000Y-77917523D01*
X88939952Y-77857047D01*
X89000428Y-77796571D01*
X89121380Y-77615142D01*
X89181857Y-77373238D01*
X89181857Y-76889428D01*
X89121380Y-76768476D01*
X89060904Y-76708000D01*
X88939952Y-76647523D01*
X88698047Y-76647523D01*
X88577095Y-76708000D01*
X88516619Y-76768476D01*
X88456142Y-76889428D01*
X88456142Y-77191809D01*
X88516619Y-77312761D01*
X88577095Y-77373238D01*
X88698047Y-77433714D01*
X88939952Y-77433714D01*
X89060904Y-77373238D01*
X89121380Y-77312761D01*
X89181857Y-77191809D01*
%TO.C,C13*%
X87748571Y-110562571D02*
X87688095Y-110623047D01*
X87506666Y-110683523D01*
X87385714Y-110683523D01*
X87204285Y-110623047D01*
X87083333Y-110502095D01*
X87022857Y-110381142D01*
X86962380Y-110139238D01*
X86962380Y-109957809D01*
X87022857Y-109715904D01*
X87083333Y-109594952D01*
X87204285Y-109474000D01*
X87385714Y-109413523D01*
X87506666Y-109413523D01*
X87688095Y-109474000D01*
X87748571Y-109534476D01*
X88958095Y-110683523D02*
X88232380Y-110683523D01*
X88595238Y-110683523D02*
X88595238Y-109413523D01*
X88474285Y-109594952D01*
X88353333Y-109715904D01*
X88232380Y-109776380D01*
X89381428Y-109413523D02*
X90167619Y-109413523D01*
X89744285Y-109897333D01*
X89925714Y-109897333D01*
X90046666Y-109957809D01*
X90107142Y-110018285D01*
X90167619Y-110139238D01*
X90167619Y-110441619D01*
X90107142Y-110562571D01*
X90046666Y-110623047D01*
X89925714Y-110683523D01*
X89562857Y-110683523D01*
X89441904Y-110623047D01*
X89381428Y-110562571D01*
%TO.C,C14*%
X133849571Y-28901571D02*
X133789095Y-28962047D01*
X133607666Y-29022523D01*
X133486714Y-29022523D01*
X133305285Y-28962047D01*
X133184333Y-28841095D01*
X133123857Y-28720142D01*
X133063380Y-28478238D01*
X133063380Y-28296809D01*
X133123857Y-28054904D01*
X133184333Y-27933952D01*
X133305285Y-27813000D01*
X133486714Y-27752523D01*
X133607666Y-27752523D01*
X133789095Y-27813000D01*
X133849571Y-27873476D01*
X135059095Y-29022523D02*
X134333380Y-29022523D01*
X134696238Y-29022523D02*
X134696238Y-27752523D01*
X134575285Y-27933952D01*
X134454333Y-28054904D01*
X134333380Y-28115380D01*
X136147666Y-28175857D02*
X136147666Y-29022523D01*
X135845285Y-27692047D02*
X135542904Y-28599190D01*
X136329095Y-28599190D01*
%TO.C,C15*%
X133757571Y-110562571D02*
X133697095Y-110623047D01*
X133515666Y-110683523D01*
X133394714Y-110683523D01*
X133213285Y-110623047D01*
X133092333Y-110502095D01*
X133031857Y-110381142D01*
X132971380Y-110139238D01*
X132971380Y-109957809D01*
X133031857Y-109715904D01*
X133092333Y-109594952D01*
X133213285Y-109474000D01*
X133394714Y-109413523D01*
X133515666Y-109413523D01*
X133697095Y-109474000D01*
X133757571Y-109534476D01*
X134967095Y-110683523D02*
X134241380Y-110683523D01*
X134604238Y-110683523D02*
X134604238Y-109413523D01*
X134483285Y-109594952D01*
X134362333Y-109715904D01*
X134241380Y-109776380D01*
X136116142Y-109413523D02*
X135511380Y-109413523D01*
X135450904Y-110018285D01*
X135511380Y-109957809D01*
X135632333Y-109897333D01*
X135934714Y-109897333D01*
X136055666Y-109957809D01*
X136116142Y-110018285D01*
X136176619Y-110139238D01*
X136176619Y-110441619D01*
X136116142Y-110562571D01*
X136055666Y-110623047D01*
X135934714Y-110683523D01*
X135632333Y-110683523D01*
X135511380Y-110623047D01*
X135450904Y-110562571D01*
%TO.C,C16*%
X87875571Y-158568571D02*
X87815095Y-158629047D01*
X87633666Y-158689523D01*
X87512714Y-158689523D01*
X87331285Y-158629047D01*
X87210333Y-158508095D01*
X87149857Y-158387142D01*
X87089380Y-158145238D01*
X87089380Y-157963809D01*
X87149857Y-157721904D01*
X87210333Y-157600952D01*
X87331285Y-157480000D01*
X87512714Y-157419523D01*
X87633666Y-157419523D01*
X87815095Y-157480000D01*
X87875571Y-157540476D01*
X89085095Y-158689523D02*
X88359380Y-158689523D01*
X88722238Y-158689523D02*
X88722238Y-157419523D01*
X88601285Y-157600952D01*
X88480333Y-157721904D01*
X88359380Y-157782380D01*
X90173666Y-157419523D02*
X89931761Y-157419523D01*
X89810809Y-157480000D01*
X89750333Y-157540476D01*
X89629380Y-157721904D01*
X89568904Y-157963809D01*
X89568904Y-158447619D01*
X89629380Y-158568571D01*
X89689857Y-158629047D01*
X89810809Y-158689523D01*
X90052714Y-158689523D01*
X90173666Y-158629047D01*
X90234142Y-158568571D01*
X90294619Y-158447619D01*
X90294619Y-158145238D01*
X90234142Y-158024285D01*
X90173666Y-157963809D01*
X90052714Y-157903333D01*
X89810809Y-157903333D01*
X89689857Y-157963809D01*
X89629380Y-158024285D01*
X89568904Y-158145238D01*
%TO.C,C17*%
X133722571Y-77542571D02*
X133662095Y-77603047D01*
X133480666Y-77663523D01*
X133359714Y-77663523D01*
X133178285Y-77603047D01*
X133057333Y-77482095D01*
X132996857Y-77361142D01*
X132936380Y-77119238D01*
X132936380Y-76937809D01*
X132996857Y-76695904D01*
X133057333Y-76574952D01*
X133178285Y-76454000D01*
X133359714Y-76393523D01*
X133480666Y-76393523D01*
X133662095Y-76454000D01*
X133722571Y-76514476D01*
X134932095Y-77663523D02*
X134206380Y-77663523D01*
X134569238Y-77663523D02*
X134569238Y-76393523D01*
X134448285Y-76574952D01*
X134327333Y-76695904D01*
X134206380Y-76756380D01*
X135355428Y-76393523D02*
X136202095Y-76393523D01*
X135657809Y-77663523D01*
%TO.C,C18*%
X133595571Y-158695571D02*
X133535095Y-158756047D01*
X133353666Y-158816523D01*
X133232714Y-158816523D01*
X133051285Y-158756047D01*
X132930333Y-158635095D01*
X132869857Y-158514142D01*
X132809380Y-158272238D01*
X132809380Y-158090809D01*
X132869857Y-157848904D01*
X132930333Y-157727952D01*
X133051285Y-157607000D01*
X133232714Y-157546523D01*
X133353666Y-157546523D01*
X133535095Y-157607000D01*
X133595571Y-157667476D01*
X134805095Y-158816523D02*
X134079380Y-158816523D01*
X134442238Y-158816523D02*
X134442238Y-157546523D01*
X134321285Y-157727952D01*
X134200333Y-157848904D01*
X134079380Y-157909380D01*
X135530809Y-158090809D02*
X135409857Y-158030333D01*
X135349380Y-157969857D01*
X135288904Y-157848904D01*
X135288904Y-157788428D01*
X135349380Y-157667476D01*
X135409857Y-157607000D01*
X135530809Y-157546523D01*
X135772714Y-157546523D01*
X135893666Y-157607000D01*
X135954142Y-157667476D01*
X136014619Y-157788428D01*
X136014619Y-157848904D01*
X135954142Y-157969857D01*
X135893666Y-158030333D01*
X135772714Y-158090809D01*
X135530809Y-158090809D01*
X135409857Y-158151285D01*
X135349380Y-158211761D01*
X135288904Y-158332714D01*
X135288904Y-158574619D01*
X135349380Y-158695571D01*
X135409857Y-158756047D01*
X135530809Y-158816523D01*
X135772714Y-158816523D01*
X135893666Y-158756047D01*
X135954142Y-158695571D01*
X136014619Y-158574619D01*
X136014619Y-158332714D01*
X135954142Y-158211761D01*
X135893666Y-158151285D01*
X135772714Y-158090809D01*
%TD*%
M02*
